<svg version="1.1" xmlns="http://www.w3.org/2000/svg" viewBox="0 0 2751.8895525053094 2589.562985553812" width="2751.8895525053094" height="2589.562985553812">
  <!-- svg-source:excalidraw -->

  <defs>
    <style class="style-fonts">
      @font-face {
        font-family: "Virgil";
        src: url("https://file%2B.vscode-resource.vscode-cdn.net/d%3A/Users/eg/.vscode/extensions/pomdtr.excalidraw-editor-3.7.4/public//dist/excalidraw-assets/Virgil.woff2");
      }
      @font-face {
        font-family: "Cascadia";
        src: url("https://file%2B.vscode-resource.vscode-cdn.net/d%3A/Users/eg/.vscode/extensions/pomdtr.excalidraw-editor-3.7.4/public//dist/excalidraw-assets/Cascadia.woff2");
      }
      @font-face {
        font-family: "Assistant";
        src: url("https://file%2B.vscode-resource.vscode-cdn.net/d%3A/Users/eg/.vscode/extensions/pomdtr.excalidraw-editor-3.7.4/public//dist/excalidraw-assets/Assistant-Regular.woff2");
      }
    </style>

  </defs>
  <rect x="0" y="0" width="2751.8895525053094" height="2589.562985553812" fill="#ffffff"></rect><g transform="translate(677.2048702260145 443.31824097811534) rotate(0 155.859375 16.80000000000001)"><text x="0" y="0" font-family="Cascadia, Segoe UI Emoji" font-size="28px" fill="#e03131" text-anchor="start" style="white-space: pre;" direction="ltr" dominant-baseline="text-before-edge">run f5 in StudioPro</text></g><g transform="translate(651.3650262260144 880.8084749781152) rotate(0 98.4375 16.80000000000001)"><text x="0" y="0" font-family="Cascadia, Segoe UI Emoji" font-size="28px" fill="#e03131" text-anchor="start" style="white-space: pre;" direction="ltr" dominant-baseline="text-before-edge">npm run vite</text></g><g stroke-linecap="round" transform="translate(594.9972499649884 419.8488808709885) rotate(0 34.59595713157228 40.26936038642373)"><path d="M69.19 40.27 C69.19 42.37, 69.05 44.49, 68.77 46.57 C68.48 48.64, 68.06 50.72, 67.5 52.71 C66.94 54.71, 66.24 56.68, 65.42 58.55 C64.6 60.42, 63.65 62.24, 62.58 63.94 C61.52 65.64, 60.33 67.26, 59.06 68.74 C57.78 70.23, 56.39 71.61, 54.93 72.85 C53.47 74.08, 51.91 75.2, 50.3 76.15 C48.69 77.1, 47 77.92, 45.29 78.57 C43.57 79.22, 41.79 79.71, 40.01 80.04 C38.23 80.37, 36.4 80.54, 34.6 80.54 C32.79 80.54, 30.97 80.37, 29.18 80.04 C27.4 79.71, 25.62 79.22, 23.91 78.57 C22.19 77.92, 20.5 77.1, 18.89 76.15 C17.28 75.2, 15.72 74.08, 14.26 72.85 C12.8 71.61, 11.41 70.23, 10.13 68.74 C8.86 67.26, 7.67 65.64, 6.61 63.94 C5.55 62.24, 4.59 60.42, 3.77 58.55 C2.95 56.68, 2.25 54.71, 1.69 52.71 C1.14 50.72, 0.71 48.64, 0.43 46.57 C0.14 44.49, 0 42.37, 0 40.27 C0 38.17, 0.14 36.04, 0.43 33.97 C0.71 31.9, 1.14 29.82, 1.69 27.83 C2.25 25.83, 2.95 23.86, 3.77 21.99 C4.59 20.12, 5.55 18.3, 6.61 16.6 C7.67 14.9, 8.86 13.28, 10.13 11.79 C11.41 10.31, 12.8 8.93, 14.26 7.69 C15.72 6.46, 17.28 5.34, 18.89 4.39 C20.5 3.44, 22.19 2.62, 23.91 1.97 C25.62 1.32, 27.4 0.82, 29.18 0.5 C30.97 0.17, 32.79 0, 34.6 0 C36.4 0, 38.23 0.17, 40.01 0.5 C41.79 0.82, 43.57 1.32, 45.29 1.97 C47 2.62, 48.69 3.44, 50.3 4.39 C51.91 5.34, 53.47 6.46, 54.93 7.69 C56.39 8.93, 57.78 10.31, 59.06 11.79 C60.33 13.28, 61.52 14.9, 62.58 16.6 C63.65 18.3, 64.6 20.12, 65.42 21.99 C66.24 23.86, 66.94 25.83, 67.5 27.83 C68.06 29.82, 68.48 31.9, 68.77 33.97 C69.05 36.04, 69.12 39.22, 69.19 40.27 C69.26 41.32, 69.26 39.22, 69.19 40.27" stroke="transparent" stroke-width="1" fill="none"></path></g><g stroke-linecap="round"><g transform="translate(623.0249410168899 460.93392948396286) rotate(0 12.5297197094269 4.6694953095856135)" fill-rule="evenodd"><path d="M0 0 L0.11 9.42 L12.82 15.94 L24.56 7.62 L25.06 -1.49 L13.58 -6.6 L0 0" stroke="none" stroke-width="0" fill="#ced4da" fill-rule="evenodd"></path><path d="M0 0 C0.04 3.58, 0.09 7.15, 0.11 9.42 M0 0 C0.02 1.95, 0.05 3.91, 0.11 9.42 M0.11 9.42 C2.92 10.86, 5.73 12.3, 12.82 15.94 M0.11 9.42 C5 11.93, 9.88 14.43, 12.82 15.94 M12.82 15.94 C15.61 13.96, 18.39 11.99, 24.56 7.62 M12.82 15.94 C16.95 13.01, 21.08 10.09, 24.56 7.62 M24.56 7.62 C24.69 5.27, 24.82 2.92, 25.06 -1.49 M24.56 7.62 C24.7 5.15, 24.83 2.68, 25.06 -1.49 M25.06 -1.49 C21.22 -3.19, 17.38 -4.9, 13.58 -6.6 M25.06 -1.49 C22.48 -2.63, 19.9 -3.78, 13.58 -6.6 M13.58 -6.6 C8.79 -4.27, 4 -1.94, 0 0 M13.58 -6.6 C10.81 -5.25, 8.03 -3.9, 0 0 M0 0 C0 0, 0 0, 0 0 M0 0 C0 0, 0 0, 0 0" stroke="#495057" stroke-width="2" fill="none"></path></g></g><mask></mask><g stroke-linecap="round"><g transform="translate(619.0784664530001 420.8710219880895) rotate(0 20.018735744541573 25.7674414394844)" fill-rule="evenodd"><path d="M0 0 C2.64 0.26, 9.72 -0.56, 15.81 1.57 C21.91 3.7, 32.53 8.24, 36.57 12.77 C40.61 17.31, 39.74 24.02, 40.04 28.79 C40.33 33.55, 39.91 37.56, 38.35 41.35 C36.79 45.14, 33.23 50.57, 30.66 51.53 C28.09 52.5, 27.47 52.33, 22.93 47.12 C18.38 41.92, 6.79 27.54, 3.38 20.3 C-0.03 13.07, 2.62 6.48, 2.47 3.71" stroke="none" stroke-width="0" fill="#ced4da" fill-rule="evenodd"></path><path d="M0 0 C2.64 0.26, 9.72 -0.56, 15.81 1.57 C21.91 3.7, 32.53 8.24, 36.57 12.77 C40.61 17.31, 39.74 24.02, 40.04 28.79 C40.33 33.55, 39.91 37.56, 38.35 41.35 C36.79 45.14, 33.23 50.57, 30.66 51.53 C28.09 52.5, 27.47 52.33, 22.93 47.12 C18.38 41.92, 6.79 27.54, 3.38 20.3 C-0.03 13.07, 2.62 6.48, 2.47 3.71 M0 0 C2.64 0.26, 9.72 -0.56, 15.81 1.57 C21.91 3.7, 32.53 8.24, 36.57 12.77 C40.61 17.31, 39.74 24.02, 40.04 28.79 C40.33 33.55, 39.91 37.56, 38.35 41.35 C36.79 45.14, 33.23 50.57, 30.66 51.53 C28.09 52.5, 27.47 52.33, 22.93 47.12 C18.38 41.92, 6.79 27.54, 3.38 20.3 C-0.03 13.07, 2.62 6.48, 2.47 3.71" stroke="#495057" stroke-width="2" fill="none"></path></g></g><mask></mask><g stroke-linecap="round"><g transform="translate(607.9055085864948 447.0549196772172) rotate(0 23.43450570367395 1.1051775550273533)" fill-rule="evenodd"><path d="M0 0 C0.72 2.29, -1.8 9.05, 4.31 13.76 C10.42 18.48, 29.64 27.33, 36.67 28.29 C43.7 29.25, 44.79 25.53, 46.49 19.51 C48.19 13.48, 48.32 -1.82, 46.87 -7.86 C45.42 -13.9, 43.36 -13.7, 37.77 -16.74 C32.18 -19.77, 19.34 -25.34, 13.34 -26.08 C7.35 -26.82, 4.03 -25.5, 1.8 -21.15 C-0.42 -16.81, 0.3 -3.53, 0 0" stroke="none" stroke-width="0" fill="#ced4da" fill-rule="evenodd"></path><path d="M0 0 C0.72 2.29, -1.8 9.05, 4.31 13.76 C10.42 18.48, 29.64 27.33, 36.67 28.29 C43.7 29.25, 44.79 25.53, 46.49 19.51 C48.19 13.48, 48.32 -1.82, 46.87 -7.86 C45.42 -13.9, 43.36 -13.7, 37.77 -16.74 C32.18 -19.77, 19.34 -25.34, 13.34 -26.08 C7.35 -26.82, 4.03 -25.5, 1.8 -21.15 C-0.42 -16.81, 0.3 -3.53, 0 0 M0 0 C0.72 2.29, -1.8 9.05, 4.31 13.76 C10.42 18.48, 29.64 27.33, 36.67 28.29 C43.7 29.25, 44.79 25.53, 46.49 19.51 C48.19 13.48, 48.32 -1.82, 46.87 -7.86 C45.42 -13.9, 43.36 -13.7, 37.77 -16.74 C32.18 -19.77, 19.34 -25.34, 13.34 -26.08 C7.35 -26.82, 4.03 -25.5, 1.8 -21.15 C-0.42 -16.81, 0.3 -3.53, 0 0" stroke="#495057" stroke-width="2" fill="none"></path></g></g><mask></mask><g stroke-linecap="round"><g transform="translate(611.0873267683128 446.6095417319839) rotate(0 19.886363636362603 0.833333333332348)" fill-rule="evenodd"><path d="M0 0 C0.6 1.93, -1.26 7.63, 3.62 11.57 C8.51 15.5, 23.29 22.4, 29.29 23.59 C35.3 24.77, 37.9 23.46, 39.65 18.69 C41.39 13.91, 41.09 0.38, 39.77 -5.08 C38.46 -10.53, 36.5 -11.26, 31.74 -14.07 C26.98 -16.87, 16.25 -21.3, 11.21 -21.92 C6.17 -22.54, 3.38 -21.43, 1.52 -17.78 C-0.35 -14.12, 0.25 -2.96, 0 0" stroke="none" stroke-width="0" fill="#343a40" fill-rule="evenodd"></path><path d="M0 0 C0.6 1.93, -1.26 7.63, 3.62 11.57 C8.51 15.5, 23.29 22.4, 29.29 23.59 C35.3 24.77, 37.9 23.46, 39.65 18.69 C41.39 13.91, 41.09 0.38, 39.77 -5.08 C38.46 -10.53, 36.5 -11.26, 31.74 -14.07 C26.98 -16.87, 16.25 -21.3, 11.21 -21.92 C6.17 -22.54, 3.38 -21.43, 1.52 -17.78 C-0.35 -14.12, 0.25 -2.96, 0 0 M0 0 C0.6 1.93, -1.26 7.63, 3.62 11.57 C8.51 15.5, 23.29 22.4, 29.29 23.59 C35.3 24.77, 37.9 23.46, 39.65 18.69 C41.39 13.91, 41.09 0.38, 39.77 -5.08 C38.46 -10.53, 36.5 -11.26, 31.74 -14.07 C26.98 -16.87, 16.25 -21.3, 11.21 -21.92 C6.17 -22.54, 3.38 -21.43, 1.52 -17.78 C-0.35 -14.12, 0.25 -2.96, 0 0" stroke="#495057" stroke-width="2" fill="none"></path></g></g><mask></mask><g stroke-linecap="round"><g transform="translate(590.3136342824891 474.19460767390456) rotate(0 26.725855238896884 7.1870886605131545)" fill-rule="evenodd"><path d="M0 0 L0.11 2.94 L39.14 25.66 L52.95 15.72 L53.45 11.24 L14.74 -11.29 L0 0" stroke="none" stroke-width="0" fill="#ced4da" fill-rule="evenodd"></path><path d="M0 0 C0.05 1.17, 0.09 2.35, 0.11 2.94 M0 0 C0.03 0.72, 0.06 1.44, 0.11 2.94 M0.11 2.94 C12.33 10.05, 24.54 17.16, 39.14 25.66 M0.11 2.94 C14.55 11.35, 28.99 19.75, 39.14 25.66 M39.14 25.66 C42.56 23.2, 45.97 20.74, 52.95 15.72 M39.14 25.66 C44.28 21.96, 49.42 18.26, 52.95 15.72 M52.95 15.72 C53.08 14.58, 53.21 13.44, 53.45 11.24 M52.95 15.72 C53.06 14.76, 53.17 13.8, 53.45 11.24 M53.45 11.24 C39.47 3.11, 25.49 -5.03, 14.74 -11.29 M53.45 11.24 C44.56 6.07, 35.67 0.89, 14.74 -11.29 M14.74 -11.29 C9.21 -7.05, 3.68 -2.82, 0 0 M14.74 -11.29 C10.14 -7.76, 5.53 -4.24, 0 0 M0 0 C0 0, 0 0, 0 0 M0 0 C0 0, 0 0, 0 0" stroke="#495057" stroke-width="2" fill="none"></path></g></g><mask></mask><g stroke-linecap="round"><g transform="translate(590.8897685771881 474.7416475565915) rotate(0 26.365204037042076 11.218710673167152)"><path d="M0 0 C13.64 7.96, 27.27 15.92, 38.44 22.44 M0 0 C14.4 8.4, 28.79 16.81, 38.44 22.44 M38.44 22.44 C42.48 19.05, 46.52 15.66, 52.73 10.45 M38.44 22.44 C42.41 19.11, 46.38 15.78, 52.73 10.45" stroke="#495057" stroke-width="1" fill="none"></path></g></g><mask></mask><g stroke-linecap="round"><g transform="translate(629.4649627080107 500.32290584736666) rotate(0 -0.015662916919154668 -1.4976823036322457)"><path d="M0 0 C-0.01 -0.71, -0.01 -1.42, -0.03 -3 M0 0 C-0.01 -0.64, -0.01 -1.29, -0.03 -3" stroke="#495057" stroke-width="1" fill="none"></path></g></g><mask></mask><g stroke-linecap="round"><g transform="translate(605.3194595375999 466.22831132915735) rotate(0 4.9187904235463975 10.073473281810948)" fill-rule="evenodd"><path d="M0 0 L-10.46 8.17 L10.57 20.15 L20.3 11.43 L0 0" stroke="none" stroke-width="0" fill="#495057" fill-rule="evenodd"></path><path d="M0 0 C-2.31 1.81, -4.62 3.61, -10.46 8.17 M0 0 C-4.02 3.14, -8.04 6.28, -10.46 8.17 M-10.46 8.17 C-5.46 11.01, -0.47 13.86, 10.57 20.15 M-10.46 8.17 C-3.06 12.38, 4.34 16.6, 10.57 20.15 M10.57 20.15 C13.08 17.9, 15.59 15.65, 20.3 11.43 M10.57 20.15 C13.21 17.78, 15.84 15.42, 20.3 11.43 M20.3 11.43 C13.51 7.61, 6.73 3.79, 0 0 M20.3 11.43 C15.74 8.86, 11.18 6.29, 0 0 M0 0 C0 0, 0 0, 0 0 M0 0 C0 0, 0 0, 0 0" stroke="#495057" stroke-width="1" fill="none"></path></g></g><mask></mask><g stroke-linecap="round"><g transform="translate(627.2945939625879 478.9601614329208) rotate(0 0.4069587940120982 2.578481262354444)" fill-rule="evenodd"><path d="M0 0 L-3.28 3.01 L1.04 5.16 L4.09 2.31 L0 0" stroke="none" stroke-width="0" fill="#495057" fill-rule="evenodd"></path><path d="M0 0 C-1.21 1.11, -2.42 2.22, -3.28 3.01 M0 0 C-1.19 1.09, -2.37 2.18, -3.28 3.01 M-3.28 3.01 C-1.84 3.73, -0.4 4.44, 1.04 5.16 M-3.28 3.01 C-1.75 3.77, -0.22 4.53, 1.04 5.16 M1.04 5.16 C1.72 4.53, 2.39 3.9, 4.09 2.31 M1.04 5.16 C2.12 4.15, 3.2 3.15, 4.09 2.31 M4.09 2.31 C2.84 1.6, 1.58 0.89, 0 0 M4.09 2.31 C2.77 1.57, 1.45 0.82, 0 0 M0 0 C0 0, 0 0, 0 0 M0 0 C0 0, 0 0, 0 0" stroke="#495057" stroke-width="1" fill="none"></path></g></g><mask></mask><g stroke-linecap="round"><g transform="translate(633.5773391455277 482.30287630627026) rotate(0 -1.9084774475986706 6.135528242220289)" fill-rule="evenodd"><path d="M0 0 L-9.52 8.58 L-3.72 12.27 L5.71 3.72 L0 0" stroke="none" stroke-width="0" fill="#495057" fill-rule="evenodd"></path><path d="M0 0 C-2.99 2.69, -5.97 5.38, -9.52 8.58 M0 0 C-3.78 3.4, -7.55 6.81, -9.52 8.58 M-9.52 8.58 C-8.17 9.44, -6.82 10.3, -3.72 12.27 M-9.52 8.58 C-8.29 9.37, -7.06 10.15, -3.72 12.27 M-3.72 12.27 C-0.57 9.41, 2.58 6.55, 5.71 3.72 M-3.72 12.27 C-0.01 8.9, 3.71 5.53, 5.71 3.72 M5.71 3.72 C3.82 2.49, 1.93 1.26, 0 0 M5.71 3.72 C3.57 2.33, 1.44 0.94, 0 0 M0 0 C0 0, 0 0, 0 0 M0 0 C0 0, 0 0, 0 0" stroke="#495057" stroke-width="1" fill="none"></path></g></g><mask></mask><g stroke-linecap="round" transform="translate(558.7407269649884 857.3391148709885) rotate(0 34.59595713157228 40.26936038642373)"><path d="M69.19 40.27 C69.19 42.37, 69.05 44.49, 68.77 46.57 C68.48 48.64, 68.06 50.72, 67.5 52.71 C66.94 54.71, 66.24 56.68, 65.42 58.55 C64.6 60.42, 63.65 62.24, 62.58 63.94 C61.52 65.64, 60.33 67.26, 59.06 68.74 C57.78 70.23, 56.39 71.61, 54.93 72.85 C53.47 74.08, 51.91 75.2, 50.3 76.15 C48.69 77.1, 47 77.92, 45.29 78.57 C43.57 79.22, 41.79 79.71, 40.01 80.04 C38.23 80.37, 36.4 80.54, 34.6 80.54 C32.79 80.54, 30.97 80.37, 29.18 80.04 C27.4 79.71, 25.62 79.22, 23.91 78.57 C22.19 77.92, 20.5 77.1, 18.89 76.15 C17.28 75.2, 15.72 74.08, 14.26 72.85 C12.8 71.61, 11.41 70.23, 10.13 68.74 C8.86 67.26, 7.67 65.64, 6.61 63.94 C5.55 62.24, 4.59 60.42, 3.77 58.55 C2.95 56.68, 2.25 54.71, 1.69 52.71 C1.14 50.72, 0.71 48.64, 0.43 46.57 C0.14 44.49, 0 42.37, 0 40.27 C0 38.17, 0.14 36.04, 0.43 33.97 C0.71 31.9, 1.14 29.82, 1.69 27.83 C2.25 25.83, 2.95 23.86, 3.77 21.99 C4.59 20.12, 5.55 18.3, 6.61 16.6 C7.67 14.9, 8.86 13.28, 10.13 11.79 C11.41 10.31, 12.8 8.93, 14.26 7.69 C15.72 6.46, 17.28 5.34, 18.89 4.39 C20.5 3.44, 22.19 2.62, 23.91 1.97 C25.62 1.32, 27.4 0.82, 29.18 0.5 C30.97 0.17, 32.79 0, 34.6 0 C36.4 0, 38.23 0.17, 40.01 0.5 C41.79 0.82, 43.57 1.32, 45.29 1.97 C47 2.62, 48.69 3.44, 50.3 4.39 C51.91 5.34, 53.47 6.46, 54.93 7.69 C56.39 8.93, 57.78 10.31, 59.06 11.79 C60.33 13.28, 61.52 14.9, 62.58 16.6 C63.65 18.3, 64.6 20.12, 65.42 21.99 C66.24 23.86, 66.94 25.83, 67.5 27.83 C68.06 29.82, 68.48 31.9, 68.77 33.97 C69.05 36.04, 69.12 39.22, 69.19 40.27 C69.26 41.32, 69.26 39.22, 69.19 40.27" stroke="transparent" stroke-width="1" fill="none"></path></g><g stroke-linecap="round"><g transform="translate(586.7684180168899 898.4241634839628) rotate(0 12.5297197094269 4.6694953095856135)" fill-rule="evenodd"><path d="M0 0 L0.11 9.42 L12.82 15.94 L24.56 7.62 L25.06 -1.49 L13.58 -6.6 L0 0" stroke="none" stroke-width="0" fill="#ced4da" fill-rule="evenodd"></path><path d="M0 0 C0.05 3.72, 0.09 7.44, 0.11 9.42 M0 0 C0.03 2.24, 0.05 4.49, 0.11 9.42 M0.11 9.42 C5.19 12.03, 10.27 14.63, 12.82 15.94 M0.11 9.42 C4.27 11.55, 8.42 13.68, 12.82 15.94 M12.82 15.94 C16.25 13.51, 19.68 11.08, 24.56 7.62 M12.82 15.94 C16.47 13.35, 20.13 10.76, 24.56 7.62 M24.56 7.62 C24.73 4.55, 24.9 1.47, 25.06 -1.49 M24.56 7.62 C24.7 5.1, 24.84 2.58, 25.06 -1.49 M25.06 -1.49 C22.22 -2.75, 19.38 -4.02, 13.58 -6.6 M25.06 -1.49 C22.56 -2.6, 20.06 -3.71, 13.58 -6.6 M13.58 -6.6 C8.59 -4.18, 3.61 -1.75, 0 0 M13.58 -6.6 C10.16 -4.94, 6.74 -3.28, 0 0 M0 0 C0 0, 0 0, 0 0 M0 0 C0 0, 0 0, 0 0" stroke="#495057" stroke-width="2" fill="none"></path></g></g><mask></mask><g stroke-linecap="round"><g transform="translate(582.8219434530001 858.3612559880895) rotate(0 20.018735744541573 25.7674414394844)" fill-rule="evenodd"><path d="M0 0 C2.64 0.26, 9.72 -0.56, 15.81 1.57 C21.91 3.7, 32.53 8.24, 36.57 12.77 C40.61 17.31, 39.74 24.02, 40.04 28.79 C40.33 33.55, 39.91 37.56, 38.35 41.35 C36.79 45.14, 33.23 50.57, 30.66 51.53 C28.09 52.5, 27.47 52.33, 22.93 47.12 C18.38 41.92, 6.79 27.54, 3.38 20.3 C-0.03 13.07, 2.62 6.48, 2.47 3.71" stroke="none" stroke-width="0" fill="#ced4da" fill-rule="evenodd"></path><path d="M0 0 C2.64 0.26, 9.72 -0.56, 15.81 1.57 C21.91 3.7, 32.53 8.24, 36.57 12.77 C40.61 17.31, 39.74 24.02, 40.04 28.79 C40.33 33.55, 39.91 37.56, 38.35 41.35 C36.79 45.14, 33.23 50.57, 30.66 51.53 C28.09 52.5, 27.47 52.33, 22.93 47.12 C18.38 41.92, 6.79 27.54, 3.38 20.3 C-0.03 13.07, 2.62 6.48, 2.47 3.71 M0 0 C2.64 0.26, 9.72 -0.56, 15.81 1.57 C21.91 3.7, 32.53 8.24, 36.57 12.77 C40.61 17.31, 39.74 24.02, 40.04 28.79 C40.33 33.55, 39.91 37.56, 38.35 41.35 C36.79 45.14, 33.23 50.57, 30.66 51.53 C28.09 52.5, 27.47 52.33, 22.93 47.12 C18.38 41.92, 6.79 27.54, 3.38 20.3 C-0.03 13.07, 2.62 6.48, 2.47 3.71" stroke="#495057" stroke-width="2" fill="none"></path></g></g><mask></mask><g stroke-linecap="round"><g transform="translate(571.6489855864947 884.5451536772172) rotate(0 23.43450570367395 1.1051775550273533)" fill-rule="evenodd"><path d="M0 0 C0.72 2.29, -1.8 9.05, 4.31 13.76 C10.42 18.48, 29.64 27.33, 36.67 28.29 C43.7 29.25, 44.79 25.53, 46.49 19.51 C48.19 13.48, 48.32 -1.82, 46.87 -7.86 C45.42 -13.9, 43.36 -13.7, 37.77 -16.74 C32.18 -19.77, 19.34 -25.34, 13.34 -26.08 C7.35 -26.82, 4.03 -25.5, 1.8 -21.15 C-0.42 -16.81, 0.3 -3.53, 0 0" stroke="none" stroke-width="0" fill="#ced4da" fill-rule="evenodd"></path><path d="M0 0 C0.72 2.29, -1.8 9.05, 4.31 13.76 C10.42 18.48, 29.64 27.33, 36.67 28.29 C43.7 29.25, 44.79 25.53, 46.49 19.51 C48.19 13.48, 48.32 -1.82, 46.87 -7.86 C45.42 -13.9, 43.36 -13.7, 37.77 -16.74 C32.18 -19.77, 19.34 -25.34, 13.34 -26.08 C7.35 -26.82, 4.03 -25.5, 1.8 -21.15 C-0.42 -16.81, 0.3 -3.53, 0 0 M0 0 C0.72 2.29, -1.8 9.05, 4.31 13.76 C10.42 18.48, 29.64 27.33, 36.67 28.29 C43.7 29.25, 44.79 25.53, 46.49 19.51 C48.19 13.48, 48.32 -1.82, 46.87 -7.86 C45.42 -13.9, 43.36 -13.7, 37.77 -16.74 C32.18 -19.77, 19.34 -25.34, 13.34 -26.08 C7.35 -26.82, 4.03 -25.5, 1.8 -21.15 C-0.42 -16.81, 0.3 -3.53, 0 0" stroke="#495057" stroke-width="2" fill="none"></path></g></g><mask></mask><g stroke-linecap="round"><g transform="translate(574.8308037683128 884.0997757319839) rotate(0 19.886363636362603 0.833333333332348)" fill-rule="evenodd"><path d="M0 0 C0.6 1.93, -1.26 7.63, 3.62 11.57 C8.51 15.5, 23.29 22.4, 29.29 23.59 C35.3 24.77, 37.9 23.46, 39.65 18.69 C41.39 13.91, 41.09 0.38, 39.77 -5.08 C38.46 -10.53, 36.5 -11.26, 31.74 -14.07 C26.98 -16.87, 16.25 -21.3, 11.21 -21.92 C6.17 -22.54, 3.38 -21.43, 1.52 -17.78 C-0.35 -14.12, 0.25 -2.96, 0 0" stroke="none" stroke-width="0" fill="#343a40" fill-rule="evenodd"></path><path d="M0 0 C0.6 1.93, -1.26 7.63, 3.62 11.57 C8.51 15.5, 23.29 22.4, 29.29 23.59 C35.3 24.77, 37.9 23.46, 39.65 18.69 C41.39 13.91, 41.09 0.38, 39.77 -5.08 C38.46 -10.53, 36.5 -11.26, 31.74 -14.07 C26.98 -16.87, 16.25 -21.3, 11.21 -21.92 C6.17 -22.54, 3.38 -21.43, 1.52 -17.78 C-0.35 -14.12, 0.25 -2.96, 0 0 M0 0 C0.6 1.93, -1.26 7.63, 3.62 11.57 C8.51 15.5, 23.29 22.4, 29.29 23.59 C35.3 24.77, 37.9 23.46, 39.65 18.69 C41.39 13.91, 41.09 0.38, 39.77 -5.08 C38.46 -10.53, 36.5 -11.26, 31.74 -14.07 C26.98 -16.87, 16.25 -21.3, 11.21 -21.92 C6.17 -22.54, 3.38 -21.43, 1.52 -17.78 C-0.35 -14.12, 0.25 -2.96, 0 0" stroke="#495057" stroke-width="2" fill="none"></path></g></g><mask></mask><g stroke-linecap="round"><g transform="translate(554.0571112824891 911.6848416739045) rotate(0 26.725855238896884 7.1870886605131545)" fill-rule="evenodd"><path d="M0 0 L0.11 2.94 L39.14 25.66 L52.95 15.72 L53.45 11.24 L14.74 -11.29 L0 0" stroke="none" stroke-width="0" fill="#ced4da" fill-rule="evenodd"></path><path d="M0 0 C0.03 0.83, 0.06 1.65, 0.11 2.94 M0 0 C0.03 0.88, 0.07 1.75, 0.11 2.94 M0.11 2.94 C9.87 8.62, 19.62 14.3, 39.14 25.66 M0.11 2.94 C10 8.69, 19.88 14.45, 39.14 25.66 M39.14 25.66 C44.65 21.7, 50.16 17.73, 52.95 15.72 M39.14 25.66 C41.93 23.65, 44.73 21.64, 52.95 15.72 M52.95 15.72 C53.09 14.52, 53.22 13.32, 53.45 11.24 M52.95 15.72 C53.12 14.19, 53.29 12.66, 53.45 11.24 M53.45 11.24 C42.93 5.12, 32.42 -1, 14.74 -11.29 M53.45 11.24 C39.79 3.29, 26.12 -4.66, 14.74 -11.29 M14.74 -11.29 C10.62 -8.13, 6.5 -4.98, 0 0 M14.74 -11.29 C11.57 -8.86, 8.39 -6.43, 0 0 M0 0 C0 0, 0 0, 0 0 M0 0 C0 0, 0 0, 0 0" stroke="#495057" stroke-width="2" fill="none"></path></g></g><mask></mask><g stroke-linecap="round"><g transform="translate(554.6332455771881 912.2318815565915) rotate(0 26.365204037042076 11.218710673167152)"><path d="M0 0 C11.91 6.95, 23.83 13.91, 38.44 22.44 M0 0 C8.43 4.92, 16.87 9.84, 38.44 22.44 M38.44 22.44 C41.31 20.03, 44.18 17.62, 52.73 10.45 M38.44 22.44 C43.37 18.3, 48.3 14.16, 52.73 10.45" stroke="#495057" stroke-width="1" fill="none"></path></g></g><mask></mask><g stroke-linecap="round"><g transform="translate(593.2084397080107 937.8131398473666) rotate(0 -0.015662916919154668 -1.4976823036322457)"><path d="M0 0 C-0.01 -0.92, -0.02 -1.83, -0.03 -3 M0 0 C-0.01 -0.75, -0.02 -1.5, -0.03 -3" stroke="#495057" stroke-width="1" fill="none"></path></g></g><mask></mask><g stroke-linecap="round"><g transform="translate(569.0629365375999 903.7185453291573) rotate(0 4.9187904235463975 10.073473281810948)" fill-rule="evenodd"><path d="M0 0 L-10.46 8.17 L10.57 20.15 L20.3 11.43 L0 0" stroke="none" stroke-width="0" fill="#495057" fill-rule="evenodd"></path><path d="M0 0 C-2.49 1.94, -4.98 3.89, -10.46 8.17 M0 0 C-4.18 3.26, -8.36 6.53, -10.46 8.17 M-10.46 8.17 C-3.58 12.08, 3.29 16, 10.57 20.15 M-10.46 8.17 C-4.31 11.67, 1.83 15.17, 10.57 20.15 M10.57 20.15 C13.6 17.43, 16.63 14.72, 20.3 11.43 M10.57 20.15 C13.86 17.2, 17.14 14.26, 20.3 11.43 M20.3 11.43 C14.68 8.27, 9.07 5.11, 0 0 M20.3 11.43 C15.27 8.6, 10.25 5.77, 0 0 M0 0 C0 0, 0 0, 0 0 M0 0 C0 0, 0 0, 0 0" stroke="#495057" stroke-width="1" fill="none"></path></g></g><mask></mask><g stroke-linecap="round"><g transform="translate(591.0380709625879 916.4503954329208) rotate(0 0.4069587940120982 2.578481262354444)" fill-rule="evenodd"><path d="M0 0 L-3.28 3.01 L1.04 5.16 L4.09 2.31 L0 0" stroke="none" stroke-width="0" fill="#495057" fill-rule="evenodd"></path><path d="M0 0 C-0.77 0.7, -1.53 1.41, -3.28 3.01 M0 0 C-0.7 0.64, -1.4 1.28, -3.28 3.01 M-3.28 3.01 C-1.73 3.78, -0.19 4.55, 1.04 5.16 M-3.28 3.01 C-1.85 3.72, -0.42 4.43, 1.04 5.16 M1.04 5.16 C2.16 4.12, 3.28 3.08, 4.09 2.31 M1.04 5.16 C2.12 4.15, 3.21 3.14, 4.09 2.31 M4.09 2.31 C3.18 1.79, 2.26 1.28, 0 0 M4.09 2.31 C3.1 1.75, 2.11 1.19, 0 0 M0 0 C0 0, 0 0, 0 0 M0 0 C0 0, 0 0, 0 0" stroke="#495057" stroke-width="1" fill="none"></path></g></g><mask></mask><g stroke-linecap="round"><g transform="translate(597.3208161455277 919.7931103062703) rotate(0 -1.9084774475986706 6.135528242220289)" fill-rule="evenodd"><path d="M0 0 L-9.52 8.58 L-3.72 12.27 L5.71 3.72 L0 0" stroke="none" stroke-width="0" fill="#495057" fill-rule="evenodd"></path><path d="M0 0 C-2.41 2.17, -4.82 4.34, -9.52 8.58 M0 0 C-3.34 3.01, -6.68 6.02, -9.52 8.58 M-9.52 8.58 C-8.15 9.45, -6.78 10.33, -3.72 12.27 M-9.52 8.58 C-7.34 9.97, -5.16 11.36, -3.72 12.27 M-3.72 12.27 C-0.36 9.23, 2.99 6.18, 5.71 3.72 M-3.72 12.27 C-0.67 9.5, 2.39 6.73, 5.71 3.72 M5.71 3.72 C4.29 2.8, 2.88 1.88, 0 0 M5.71 3.72 C4.2 2.74, 2.7 1.76, 0 0 M0 0 C0 0, 0 0, 0 0 M0 0 C0 0, 0 0, 0 0" stroke="#495057" stroke-width="1" fill="none"></path></g></g><mask></mask><g stroke-linecap="round"><g transform="translate(55.81430758594115 1814.7348663530863) rotate(0 646.082235360419 1.175061504647374)"><path d="M-0.16 0.31 C215.36 0.88, 1076.65 3.23, 1292.07 3.38 M-1.71 -0.57 C213.74 -0.32, 1075.5 1.38, 1291.07 1.8" stroke="#000000" stroke-width="1" fill="none"></path></g></g><mask></mask><g stroke-linecap="round" transform="translate(97.31494967432445 1719.3797188985016) rotate(0 25.306771536965925 24.93555878746315)"><path d="M28.12 0.33 C33.54 0.56, 40.02 4.08, 43.82 7.93 C47.62 11.78, 50.49 18.07, 50.92 23.41 C51.35 28.76, 49.43 35.81, 46.4 40 C43.37 44.19, 38.17 47.17, 32.74 48.54 C27.31 49.9, 18.83 50.33, 13.82 48.2 C8.8 46.07, 4.87 40.73, 2.65 35.78 C0.44 30.83, -0.89 23.71, 0.53 18.49 C1.95 13.27, 5.8 7.33, 11.19 4.43 C16.58 1.54, 28.32 1.08, 32.88 1.11 C37.43 1.14, 38.72 4.36, 38.53 4.61 M23.63 1.12 C28.81 0.53, 37.57 1.16, 42.08 4.06 C46.6 6.97, 49.84 13.01, 50.71 18.54 C51.58 24.07, 50.23 32.16, 47.31 37.26 C44.39 42.36, 38.2 47.46, 33.19 49.14 C28.19 50.82, 22.32 49.01, 17.3 47.33 C12.27 45.64, 5.72 43.1, 3.06 39.01 C0.39 34.93, 0.49 28.35, 1.32 22.83 C2.14 17.31, 4.38 9.46, 8.02 5.88 C11.66 2.3, 20.19 2.21, 23.14 1.36 C26.1 0.51, 25.63 0.71, 25.75 0.77" stroke="#000000" stroke-width="1" fill="none"></path></g><g stroke-linecap="round" transform="translate(170.19541184834725 1719.3797188985016) rotate(0 25.306771536965925 24.93555878746315)"><path d="M25.49 0.64 C30.59 0.3, 37.46 2.83, 41.63 6.22 C45.8 9.6, 49.38 15.89, 50.5 20.95 C51.61 26, 51.14 31.88, 48.32 36.54 C45.49 41.19, 38.74 46.82, 33.58 48.87 C28.42 50.91, 22.4 50.66, 17.35 48.81 C12.3 46.96, 6.06 42.42, 3.29 37.78 C0.52 33.14, -0.15 26.24, 0.73 20.96 C1.61 15.67, 4.27 9.42, 8.58 6.05 C12.89 2.69, 23.62 1.83, 26.59 0.76 C29.56 -0.31, 26.55 -0.78, 26.42 -0.39 M21.64 -0.85 C26.89 -2.52, 33.74 -1.07, 38.25 1.83 C42.75 4.74, 47.09 11.18, 48.67 16.57 C50.25 21.95, 49.47 29.4, 47.73 34.15 C45.99 38.89, 42.74 42.32, 38.21 45.05 C33.68 47.78, 25.73 50.9, 20.57 50.51 C15.4 50.13, 10.72 47.01, 7.22 42.73 C3.72 38.46, 0.05 30.23, -0.44 24.86 C-0.93 19.5, 0.59 14.57, 4.28 10.55 C7.98 6.52, 19.13 2.44, 21.73 0.71 C24.33 -1.03, 20.11 -0.21, 19.85 0.14" stroke="#000000" stroke-width="1" fill="none"></path></g><g stroke-linecap="round" transform="translate(240.57968750209875 1719.3797188985016) rotate(0 25.306771536965925 24.93555878746315)"><path d="M28.67 0.84 C33.77 1.14, 40.29 4.92, 44.08 8.62 C47.88 12.31, 51.33 17.71, 51.44 23.03 C51.56 28.34, 48.13 36.09, 44.78 40.5 C41.44 44.91, 36.59 48.38, 31.4 49.5 C26.2 50.61, 18.42 49.67, 13.6 47.2 C8.78 44.74, 4.59 39.62, 2.48 34.71 C0.37 29.79, -0.65 22.67, 0.95 17.69 C2.55 12.72, 6.79 7.74, 12.08 4.84 C17.37 1.95, 28.45 0.4, 32.71 0.32 C36.96 0.23, 37.7 3.9, 37.59 4.35 M35.09 0.37 C39.78 2.22, 44.95 8.38, 47.2 13.45 C49.46 18.53, 49.66 25.89, 48.64 30.83 C47.62 35.77, 45.17 39.76, 41.07 43.09 C36.97 46.42, 29.27 50.48, 24.04 50.82 C18.8 51.17, 13.71 48.92, 9.68 45.17 C5.65 41.41, 1.09 33.59, -0.14 28.29 C-1.38 22.98, -0.81 17.8, 2.27 13.35 C5.36 8.91, 13.12 3.67, 18.36 1.59 C23.6 -0.49, 31.18 0.81, 33.7 0.89 C36.21 0.97, 33.52 1.33, 33.44 2.06" stroke="#000000" stroke-width="1" fill="none"></path></g><g stroke-linecap="round"><g transform="translate(11.724280681990876 2113.5001315190448) rotate(0 685.5639108134287 5.925301660489367)"><path d="M0.28 0.76 C0.68 -30.05, 1.89 -122.88, 2.34 -184.09 C2.79 -245.3, -0.12 -323.84, 3 -366.5 C6.13 -409.17, 4.94 -425.62, 21.09 -440.09 C37.24 -454.57, 31.73 -451.77, 99.9 -453.37 C168.07 -454.97, 300.92 -449.89, 430.11 -449.7 C559.31 -449.5, 732.88 -452.23, 875.06 -452.2 C1017.25 -452.17, 1202.94 -452.19, 1283.24 -449.53 C1363.54 -446.87, 1342.11 -450.47, 1356.85 -436.25 C1371.59 -422.03, 1369.56 -408.22, 1371.67 -364.21 C1373.78 -320.2, 1370.34 -235.86, 1369.51 -172.19 C1368.68 -108.51, 1367.24 -42.87, 1366.69 17.85 C1366.14 78.57, 1365.84 131.2, 1366.19 192.12 C1366.55 253.04, 1369.65 339.37, 1368.83 383.37 C1368.02 427.37, 1374.96 442.8, 1361.3 456.1 C1347.65 469.41, 1359.69 462.06, 1286.9 463.19 C1214.11 464.32, 1069.32 463.85, 924.57 462.88 C779.81 461.92, 556.62 458.51, 418.37 457.38 C280.12 456.25, 163.1 457.2, 95.06 456.11 C27.02 455.01, 25.62 464.65, 10.13 450.79 C-5.37 436.94, 3.95 416.59, 2.1 372.99 C0.25 329.4, -0.45 251.23, -0.98 189.25 C-1.52 127.26, -1.44 32.58, -1.11 1.08 M-1.03 0.11 C-0.72 -31.13, 1.18 -124.51, 1.79 -185.96 C2.41 -247.42, -0.68 -325.93, 2.66 -368.62 C5.99 -411.31, 5.3 -427.96, 21.83 -442.1 C38.35 -456.25, 34.05 -452.07, 101.79 -453.48 C169.53 -454.9, 299.26 -451.13, 428.28 -450.56 C557.3 -450, 733.57 -450.25, 875.89 -450.09 C1018.21 -449.93, 1202.33 -451.67, 1282.21 -449.61 C1362.08 -447.54, 1340.09 -451.93, 1355.12 -437.71 C1370.16 -423.48, 1369.87 -408.6, 1372.4 -364.24 C1374.93 -319.88, 1370.98 -235.15, 1370.3 -171.54 C1369.63 -107.94, 1368.92 -43.04, 1368.34 17.39 C1367.76 77.82, 1366.91 130.01, 1366.81 191.05 C1366.71 252.1, 1368.53 339.04, 1367.75 383.64 C1366.96 428.24, 1375.36 445.29, 1362.1 458.66 C1348.84 472.04, 1361.34 463.02, 1288.19 463.89 C1215.04 464.75, 1067.87 464.8, 923.19 463.85 C778.51 462.9, 558.38 459.52, 420.12 458.18 C281.86 456.84, 161.94 457.28, 93.64 455.82 C25.34 454.36, 25.67 463.31, 10.31 449.42 C-5.06 435.52, 3.32 415.44, 1.46 372.43 C-0.41 329.42, -0.35 253.31, -0.88 191.37 C-1.41 129.42, -1.77 32.77, -1.72 0.78" stroke="#000000" stroke-width="1" fill="none"></path></g></g><mask></mask><g stroke-linecap="round"><g transform="translate(831.3610037748326 1708.081285718195) rotate(0 6.419745562445314 30.74297068730459)"><path d="M0.76 0.48 C69.33 0.43, 333.1 -1.88, 411.66 0.42 C490.22 2.73, 462.31 5.3, 472.14 14.31 C481.97 23.32, 480.5 46.77, 470.63 54.49 C460.77 62.21, 491.32 59.51, 412.94 60.61 C334.56 61.71, 132.73 61.07, 0.35 61.09 C-132.03 61.12, -305.51 60.94, -381.34 60.78 C-457.17 60.62, -441.77 67.72, -454.62 60.14 C-467.47 52.55, -468.25 25.39, -458.45 15.26 C-448.66 5.13, -472.06 1.91, -395.84 -0.65 C-319.62 -3.21, -67.23 -0.11, -1.13 -0.07 M-0.29 -0.31 C68.16 -0.8, 332.44 -3.62, 411.13 -1.48 C489.83 0.66, 461.96 3.09, 471.86 12.51 C481.77 21.94, 480.57 46.97, 470.58 55.08 C460.58 63.19, 490.59 60.38, 411.88 61.17 C333.16 61.97, 130.38 60.09, -1.71 59.85 C-133.81 59.6, -305.04 59.72, -380.7 59.7 C-456.37 59.67, -442.46 67.29, -455.7 59.72 C-468.95 52.15, -469.74 24.49, -460.17 14.29 C-450.6 4.1, -474.72 0.79, -398.26 -1.44 C-321.8 -3.68, -67.73 0.82, -1.41 0.87" stroke="#000000" stroke-width="1" fill="none"></path></g></g><mask></mask><g stroke-linecap="round"><g transform="translate(316.06512885331404 606.2239085060154) rotate(0 0 -40.386406462864215)" fill-rule="evenodd"><path d="M-0.28 -2.38 C7.68 -2.52, 38.04 5.77, 45.45 -1.65 C52.87 -9.08, 46.85 -35.87, 44.2 -46.95 C41.54 -58.04, 36.8 -62.14, 29.52 -68.17 C22.23 -74.19, 10.56 -83.31, 0.48 -83.11 C-9.6 -82.92, -23.86 -73.18, -30.99 -67 C-38.11 -60.82, -40.21 -57.13, -42.26 -46.02 C-44.32 -34.9, -50.03 -8.2, -43.32 -0.31 C-36.61 7.58, -9.08 1.61, -2 1.32" stroke="none" stroke-width="0" fill="#fa5252" fill-rule="evenodd"></path><path d="M-0.02 -0.94 C7.6 -0.9, 37.98 8.29, 45.48 0.15 C52.98 -7.99, 47.12 -38.16, 44.98 -49.8 C42.84 -61.43, 39.96 -64.45, 32.64 -69.67 C25.33 -74.9, 12.03 -81.52, 1.08 -81.14 C-9.86 -80.77, -25.49 -73.26, -33.03 -67.4 C-40.58 -61.55, -42.2 -57.21, -44.18 -46.01 C-46.15 -34.82, -52.27 -7.83, -44.9 -0.24 C-37.54 7.34, -7.64 -0.66, 0.03 -0.51 M-1.48 1.17 C6.06 1.45, 37.31 10.12, 44.96 1.77 C52.6 -6.58, 46.31 -37.17, 44.39 -48.93 C42.46 -60.69, 40.37 -63.45, 33.42 -68.79 C26.46 -74.12, 13.61 -81.05, 2.68 -80.95 C-8.26 -80.85, -24.44 -73.84, -32.2 -68.18 C-39.96 -62.52, -41.59 -58.23, -43.9 -46.98 C-46.21 -35.74, -53.1 -8.8, -46.06 -0.71 C-39.01 7.37, -9.1 1.28, -1.63 1.51" stroke="#000000" stroke-width="2" fill="none"></path></g></g><mask></mask><g stroke-linecap="round" transform="translate(255.79764873636168 559.4089443864694) rotate(0 60 40)"><path d="M0.88 1.56 L118.01 -1.54 L118.41 81.02 L1.19 79.72" stroke="none" stroke-width="0" fill="#ced4da"></path><path d="M0 0 C36.09 -0.28, 70.23 0.85, 120 0 M0 0 C30.93 0.79, 63.11 0.97, 120 0 M120 0 C118.99 24.16, 121 42.86, 120 80 M120 0 C120.23 20.67, 119.72 43.5, 120 80 M120 80 C92.5 79.92, 69.57 80.15, 0 80 M120 80 C79.7 80.39, 40.68 79.02, 0 80 M0 80 C0.42 50.36, -0.96 22.78, 0 0 M0 80 C-0.58 62.23, -0.58 45.28, 0 0" stroke="#000000" stroke-width="2" fill="none"></path></g><g stroke-linecap="round" transform="translate(309.13596660745543 592.7472622575632) rotate(0 6.66168212890625 6.66168212890625)"><path d="M7.39 -0.13 C8.73 -0.06, 10.51 0.78, 11.5 1.91 C12.49 3.03, 13.23 5.11, 13.32 6.61 C13.4 8.1, 12.9 9.76, 11.99 10.89 C11.08 12.01, 9.24 13.06, 7.85 13.36 C6.47 13.67, 4.92 13.51, 3.68 12.74 C2.44 11.97, 0.9 10.12, 0.39 8.74 C-0.12 7.36, 0.08 5.75, 0.62 4.45 C1.17 3.16, 2.4 1.73, 3.65 0.96 C4.9 0.19, 7.48 -0.11, 8.13 -0.15 C8.79 -0.19, 7.69 0.56, 7.58 0.73 M6.24 -0.36 C7.47 -0.51, 8.68 1.03, 9.8 1.77 C10.92 2.52, 12.53 2.74, 12.95 4.11 C13.38 5.48, 12.89 8.55, 12.35 9.99 C11.8 11.43, 10.93 12.31, 9.66 12.74 C8.39 13.17, 6.08 12.92, 4.7 12.55 C3.32 12.17, 2.18 11.5, 1.36 10.5 C0.54 9.49, -0.35 7.82, -0.21 6.53 C-0.06 5.24, 1.22 3.8, 2.23 2.76 C3.25 1.71, 5.33 0.79, 5.87 0.28 C6.42 -0.22, 5.56 -0.35, 5.52 -0.25" stroke="none" stroke-width="0" fill="#ffffff"></path><path d="M7.89 -0.31 C9.29 -0.09, 11.16 1.08, 12.12 2.27 C13.07 3.45, 13.72 5.31, 13.62 6.79 C13.52 8.26, 12.55 9.97, 11.51 11.13 C10.48 12.28, 8.73 13.59, 7.38 13.71 C6.04 13.83, 4.63 12.69, 3.43 11.85 C2.23 11.01, 0.73 9.92, 0.16 8.67 C-0.41 7.42, -0.51 5.66, 0 4.33 C0.5 3, 1.76 1.45, 3.19 0.69 C4.63 -0.08, 7.71 -0.14, 8.6 -0.25 C9.5 -0.37, 8.72 -0.22, 8.55 -0.01 M7.69 -0.07 C8.88 0.01, 9.89 1.46, 10.78 2.38 C11.67 3.31, 12.73 4.24, 13.03 5.49 C13.33 6.75, 13.45 8.68, 12.58 9.93 C11.7 11.19, 9.28 12.67, 7.78 13.03 C6.29 13.39, 4.75 12.8, 3.62 12.09 C2.49 11.39, 1.44 9.91, 0.99 8.81 C0.54 7.71, 0.59 6.84, 0.92 5.51 C1.26 4.17, 1.91 1.72, 2.99 0.78 C4.07 -0.16, 6.63 -0.15, 7.39 -0.16 C8.16 -0.16, 7.75 0.7, 7.6 0.75" stroke="#000000" stroke-width="2" fill="none"></path></g><g stroke-linecap="round"><g transform="translate(255.3918029164729 632.7110012601332) rotate(0 60.07519036085978 4.637824024873453)" fill-rule="evenodd"><path d="M0.79 -1.65 C-0.59 -0.4, -8.58 3.27, -8.61 5.12 C-8.63 6.98, -20.06 8.95, 0.63 9.5 C21.33 10.04, 94.14 9.1, 115.58 8.4 C137.01 7.71, 128.36 6.84, 129.24 5.32 C130.13 3.79, 142.22 0.18, 120.9 -0.76 C99.58 -1.7, 21.83 -0.65, 1.34 -0.31" stroke="none" stroke-width="0" fill="#ced4da" fill-rule="evenodd"></path><path d="M1 -0.42 C-0.6 0.19, -9.39 1.22, -9.28 2.77 C-9.17 4.33, -19.33 7.46, 1.66 8.91 C22.64 10.36, 95.56 12.25, 116.62 11.46 C137.69 10.67, 127.54 6.4, 128.05 4.16 C128.57 1.92, 140.87 -1.4, 119.7 -1.97 C98.54 -2.55, 21.22 0.44, 1.08 0.7 M0.07 -1.68 C-1.21 -0.83, -7.82 2.7, -7.17 4.12 C-6.51 5.53, -16.64 5.97, 3.97 6.83 C24.59 7.69, 95.48 9.68, 116.51 9.28 C137.53 8.87, 129.34 6.52, 130.11 4.42 C130.88 2.33, 143.05 -2.5, 121.13 -3.28 C99.22 -4.06, 18.66 -0.67, -1.37 -0.28" stroke="#000000" stroke-width="2" fill="none"></path></g></g><mask></mask><g stroke-linecap="round" transform="translate(276.5130535547528 452.0757982276148) rotate(0 40 39.99999999999997)"><path d="M46.77 -0.12 C53.64 0.41, 62.2 5.41, 67.68 10.41 C73.16 15.41, 77.84 22.97, 79.65 29.89 C81.46 36.81, 81.09 44.94, 78.53 51.94 C75.97 58.95, 70.02 67.24, 64.27 71.91 C58.51 76.59, 51.06 79.31, 43.99 79.98 C36.92 80.66, 28.17 79.12, 21.83 75.95 C15.49 72.78, 9.69 67.29, 5.96 60.96 C2.24 54.63, -0.83 45.28, -0.51 37.99 C-0.19 30.69, 3.88 23.1, 7.9 17.19 C11.91 11.29, 16.32 5.18, 23.59 2.57 C30.86 -0.04, 46.41 1.48, 51.5 1.53 C56.6 1.59, 54.6 2.26, 54.15 2.9 M38.24 1.5 C45.09 0.49, 53.3 2.42, 59.32 5.55 C65.35 8.68, 71.09 13.96, 74.39 20.29 C77.7 26.62, 79.45 35.99, 79.16 43.54 C78.87 51.08, 77.01 59.65, 72.65 65.55 C68.29 71.44, 60.12 76.6, 53.01 78.9 C45.9 81.19, 36.75 81.01, 29.97 79.31 C23.2 77.61, 17.17 73.91, 12.36 68.68 C7.56 63.45, 2.58 54.94, 1.14 47.91 C-0.3 40.88, 1.2 33.28, 3.71 26.49 C6.22 19.71, 10.66 11.53, 16.19 7.18 C21.72 2.84, 33.24 1.28, 36.89 0.43 C40.53 -0.43, 37.79 1.45, 38.06 2.07" stroke="none" stroke-width="0" fill="#ffffff"></path><path d="M22.89 3.93 C28.68 0.49, 37.3 -0.72, 44.29 0.28 C51.29 1.27, 59.13 5.5, 64.85 9.9 C70.57 14.29, 76.35 19.96, 78.61 26.65 C80.86 33.33, 80.45 42.81, 78.37 50 C76.29 57.18, 71.48 64.88, 66.12 69.75 C60.76 74.62, 53.01 78.17, 46.21 79.22 C39.4 80.26, 31.75 78.88, 25.29 76 C18.84 73.12, 11.83 67.65, 7.46 61.92 C3.09 56.18, -0.71 48.59, -0.94 41.59 C-1.17 34.59, 1.8 26.21, 6.09 19.9 C10.37 13.58, 21.3 6.63, 24.76 3.69 C28.22 0.74, 26.54 1.75, 26.84 2.21 M22.68 3.27 C28.49 -0.02, 38.33 -1.63, 45.77 -0.71 C53.21 0.22, 61.63 3.63, 67.32 8.81 C73 13.99, 78.02 23.38, 79.88 30.39 C81.74 37.41, 80.78 44.28, 78.48 50.91 C76.17 57.54, 71.5 65.18, 66.07 70.17 C60.64 75.15, 53.32 80.02, 45.89 80.83 C38.45 81.64, 28.3 78.17, 21.47 75.04 C14.64 71.9, 8.33 67.95, 4.9 62 C1.47 56.04, 0.65 46.79, 0.89 39.32 C1.14 31.86, 2.65 23.28, 6.37 17.22 C10.09 11.16, 20.41 5.15, 23.2 2.97 C25.99 0.79, 22.68 3.4, 23.12 4.14" stroke="#000000" stroke-width="2" fill="none"></path></g><g stroke-linecap="round"><g transform="translate(289.2856269206118 490.5880719077294) rotate(356.85899504108176 8.702939351399664 -5.594698588053234)"><path d="M-0.5 0.23 C0 -0.83, 0.84 -4.61, 2.51 -6.53 C4.17 -8.45, 7.46 -11.12, 9.48 -11.3 C11.5 -11.49, 13.23 -9.34, 14.63 -7.63 C16.03 -5.92, 17.52 -2.06, 17.9 -1.05 M0.24 -0.12 C0.97 -1.33, 2.11 -5.56, 3.58 -7.33 C5.05 -9.1, 7.22 -10.77, 9.08 -10.76 C10.94 -10.75, 13.35 -8.93, 14.75 -7.25 C16.15 -5.57, 17.07 -1.56, 17.49 -0.71" stroke="#000000" stroke-width="2" fill="none"></path></g></g><mask></mask><g stroke-linecap="round"><g transform="translate(323.15587208838633 490.8889890925583) rotate(356.85899504108176 8.702939351399664 -5.594698588053234)"><path d="M-0.32 0.33 C0.22 -0.87, 1.06 -5.01, 2.71 -6.97 C4.37 -8.93, 7.54 -11.4, 9.61 -11.42 C11.68 -11.44, 13.9 -8.72, 15.11 -7.08 C16.33 -5.44, 16.52 -2.41, 16.89 -1.55 M0.52 0.02 C1.02 -1.12, 0.77 -4.5, 2.23 -6.33 C3.68 -8.16, 7.34 -10.65, 9.27 -10.94 C11.2 -11.23, 12.42 -9.66, 13.81 -8.08 C15.21 -6.5, 16.93 -2.65, 17.62 -1.47" stroke="#000000" stroke-width="2" fill="none"></path></g></g><mask></mask><g stroke-linecap="round"><g transform="translate(297.62855046650157 507.23392168459975) rotate(0 16.490135192871094 3.174573771158805)"><path d="M-0.11 -0.11 C2.56 0.85, 10.13 5.73, 15.73 6.12 C21.32 6.51, 30.69 2.97, 33.48 2.23 M0.83 -0.65 C3.46 0.36, 9.88 6.37, 15.3 6.7 C20.73 7.03, 30.55 2.09, 33.38 1.33" stroke="#000000" stroke-width="2" fill="none"></path></g></g><mask></mask><g stroke-linecap="round"><g transform="translate(314.97992725427184 448.8842755210106) rotate(0 -6.957613627115961 -3.2254282633463163)"><path d="M0.01 -0.23 C-2.21 -1.23, -11.01 -5.06, -13.42 -6.13 M-0.64 -0.83 C-2.88 -1.98, -11.48 -6.05, -13.6 -6.93" stroke="#000000" stroke-width="2" fill="none"></path></g></g><mask></mask><g stroke-linecap="round"><g transform="translate(317.758883349647 447.9902376385242) rotate(0 12.280311584472656 -1.1916542053222656)"><path d="M0.49 0.32 C2.08 -0.05, 5.54 -1.93, 9.55 -2.47 C13.55 -3.01, 21.97 -2.87, 24.5 -2.92 M0.09 0.01 C1.83 -0.27, 6.51 -1.43, 10.52 -1.87 C14.52 -2.3, 21.71 -2.5, 24.12 -2.59" stroke="#000000" stroke-width="2" fill="none"></path></g></g><mask></mask><g stroke-linecap="round"><g transform="translate(312.7649105713267 450.4151135337059) rotate(0 -13.103345235188726 0.005130767822265625)"><path d="M-0.51 -0.18 C-3.17 -0.5, -11.17 -1.74, -15.42 -1.59 C-19.68 -1.45, -24.21 0.18, -26.03 0.7 M0.22 -0.75 C-2.55 -1.05, -11.47 -1.48, -15.89 -1.17 C-20.3 -0.86, -24.56 0.81, -26.28 1.1" stroke="#000000" stroke-width="2" fill="none"></path></g></g><mask></mask><g stroke-linecap="round"><g transform="translate(253.71984552824006 454.8205515446096) rotate(0 0.9622121411700846 -13.647496423056054)" fill-rule="evenodd"><path d="M-0.88 -2.04 C-2.01 -4, -7.11 -6.6, -8.8 -10.44 C-10.49 -14.27, -12.77 -21.92, -11.01 -25.06 C-9.25 -28.19, -2.27 -29.52, 1.75 -29.23 C5.77 -28.93, 11 -27.61, 13.13 -23.27 C15.26 -18.93, 16.66 -6.86, 14.54 -3.2 C12.41 0.46, 2.74 -1.75, 0.38 -1.32" stroke="none" stroke-width="0" fill="#fad905" fill-rule="evenodd"></path><path d="M-0.14 -1.17 C-1.61 -2.66, -8.44 -5.57, -9.98 -9.35 C-11.52 -13.13, -11.28 -20.93, -9.39 -23.84 C-7.51 -26.74, -2.06 -27.01, 1.34 -26.76 C4.74 -26.51, 9.11 -26.02, 11.01 -22.35 C12.92 -18.68, 14.49 -8.51, 12.76 -4.73 C11.02 -0.94, 2.62 -0.41, 0.6 0.35 M-1.67 0.84 C-3.17 -0.49, -9.29 -3.82, -10.72 -8.24 C-12.16 -12.65, -12.24 -22.2, -10.28 -25.67 C-8.32 -29.14, -2.8 -29.55, 1.04 -29.03 C4.88 -28.52, 11.14 -26.48, 12.76 -22.56 C14.38 -18.64, 12.62 -9.16, 10.75 -5.53 C8.89 -1.91, 3.35 -1.64, 1.56 -0.82" stroke="#fab005" stroke-width="2" fill="none"></path></g></g><mask></mask><g stroke-linecap="round"><g transform="translate(259.42006071264996 458.4836261267318) rotate(0 5.912482683048665 -2.7162347837936522)"><path d="M0.18 -0.37 C2.14 -1.11, 9.86 -4.19, 11.72 -4.99 M-0.39 0.63 C1.49 -0.22, 9.1 -4.6, 11.24 -5.73" stroke="#fab005" stroke-width="2" fill="none"></path></g></g><mask></mask><g stroke-linecap="round"><g transform="translate(263.34648779976715 461.7686943725529) rotate(0 3.8049245435138346 -1.9459427234738769)"><path d="M-0.07 0.29 C1.13 -0.29, 6.06 -2.98, 7.3 -3.73 M-0.53 0.13 C0.77 -0.54, 6.51 -3.58, 7.94 -4.27" stroke="#fab005" stroke-width="2" fill="none"></path></g></g><mask></mask><g stroke-linecap="round"><g transform="translate(266.3493890988234 465.3802297331998) rotate(0 3.8049245435138346 -1.9459427234738769)"><path d="M-0.31 0.16 C0.93 -0.59, 6.01 -3.58, 7.36 -4.23 M0.18 -0.07 C1.53 -0.81, 6.79 -3.24, 8.02 -3.95" stroke="#fab005" stroke-width="2" fill="none"></path></g></g><mask></mask><g stroke-linecap="round"><g transform="translate(247.60791272936558 421.10781137836676) rotate(0 2.1911692064861654 -9.785227221111882)"><path d="M-0.39 -0.53 C0.45 -3.79, 3.75 -16.22, 4.6 -19.37 M0.41 0.39 C1.24 -3.06, 3.6 -16.76, 4.27 -20.23" stroke="#fab005" stroke-width="2" fill="none"></path></g></g><mask></mask><g stroke-linecap="round"><g transform="translate(265.382379310488 426.92348236764684) rotate(20.406720150847715 2.1911692064861654 -9.785227221111882)"><path d="M0.21 0.2 C1.05 -2.94, 3.91 -16.1, 4.66 -19.41 M-0.34 -0.17 C0.48 -3.44, 3.56 -17.14, 4.37 -20.29" stroke="#fab005" stroke-width="2" fill="none"></path></g></g><mask></mask><g stroke-linecap="round"><g transform="translate(279.62886482102704 439.197354210852) rotate(75.02510094756782 2.1911692064861654 -9.785227221111882)"><path d="M0.27 0.16 C1.02 -3.15, 4.07 -16.4, 4.68 -19.64 M-0.25 -0.23 C0.43 -3.47, 3.53 -15.65, 4.41 -18.98" stroke="#fab005" stroke-width="2" fill="none"></path></g></g><mask></mask><g stroke-linecap="round"><g transform="translate(239.532840906601 470.3512735195367) rotate(20.406720150847715 2.1911692064861654 -9.785227221111882)"><path d="M0.3 -0.07 C0.91 -3.31, 3.29 -15.95, 3.93 -19.27 M-0.21 -0.58 C0.55 -3.99, 4.28 -16.91, 4.93 -20.09" stroke="#fab005" stroke-width="2" fill="none"></path></g></g><mask></mask><g stroke-linecap="round"><g transform="translate(224.2298652298182 452.5690356016592) rotate(66.91404318211352 2.1911692064861654 -9.785227221111882)"><path d="M-0.45 0.3 C0.2 -3.03, 3.32 -16.65, 4.18 -20.03 M0.32 -0.03 C0.85 -3.29, 2.94 -16.3, 3.65 -19.56" stroke="#fab005" stroke-width="2" fill="none"></path></g></g><mask></mask><g stroke-linecap="round"><g transform="translate(223.37784283701558 435.638876853476) rotate(96.22846988960272 2.1911692064861654 -9.785227221111882)"><path d="M-0.2 -0.46 C0.67 -3.84, 4.04 -16.8, 4.73 -20 M0.7 0.5 C1.56 -2.86, 3.76 -16.26, 4.48 -19.52" stroke="#fab005" stroke-width="2" fill="none"></path></g></g><mask></mask><g stroke-linecap="round" transform="translate(1649.8499995362681 586.2832730220606) rotate(0 298.8981648495319 79.70617729320844)"><path d="M1.64 -1.72 L596.02 0.84 L599.55 158.37 L-0.55 159.92" stroke="none" stroke-width="0" fill="#ced4da"></path><path d="M0 0 C193.53 0.07, 386.2 -0.86, 597.8 0 M0 0 C230.34 2.57, 461.15 2.28, 597.8 0 M597.8 0 C596.31 39.46, 597.42 81.1, 597.8 159.41 M597.8 0 C597.05 62.36, 597.16 126.07, 597.8 159.41 M597.8 159.41 C385.71 157.76, 172.39 158.86, 0 159.41 M597.8 159.41 C393.16 159.23, 187.92 158.86, 0 159.41 M0 159.41 C1.22 119, -0.33 78.57, 0 0 M0 159.41 C0.59 109.59, -1.23 59.42, 0 0" stroke="#000000" stroke-width="1" fill="none"></path></g><g stroke-linecap="round" transform="translate(1689.7030881828678 626.1363616686641) rotate(0 79.70617729320838 19.926544323302096)"><path d="M-1.77 0.84 L161.17 -1.05 L158.86 40.36 L1.73 38.17" stroke="none" stroke-width="0" fill="#868e96"></path><path d="M0 0 C48.38 -2.16, 100.59 -0.91, 159.41 0 M0 0 C33.06 -1.21, 65.45 -2.12, 159.41 0 M159.41 0 C160.22 13.37, 161.26 24.55, 159.41 39.85 M159.41 0 C158.7 13.49, 159.74 27.39, 159.41 39.85 M159.41 39.85 C118.82 39.78, 78.28 38.99, 0 39.85 M159.41 39.85 C114.18 40.31, 68.69 40.93, 0 39.85 M0 39.85 C-0.27 28.49, -0.1 13.62, 0 0 M0 39.85 C-1.26 27.6, 0.45 16.43, 0 0" stroke="#000000" stroke-width="1" fill="none"></path></g><g stroke-linecap="round" transform="translate(2136.0576810248394 681.930685773909) rotate(0 19.926544323302096 19.926544323302096)"><path d="M39.85 19.93 C39.85 21.08, 39.75 22.25, 39.55 23.39 C39.35 24.52, 39.05 25.66, 38.65 26.74 C38.26 27.83, 37.76 28.89, 37.18 29.89 C36.61 30.89, 35.93 31.85, 35.19 32.74 C34.45 33.62, 33.62 34.45, 32.74 35.19 C31.85 35.93, 30.89 36.61, 29.89 37.18 C28.89 37.76, 27.83 38.26, 26.74 38.65 C25.66 39.05, 24.52 39.35, 23.39 39.55 C22.25 39.75, 21.08 39.85, 19.93 39.85 C18.77 39.85, 17.6 39.75, 16.47 39.55 C15.33 39.35, 14.2 39.05, 13.11 38.65 C12.03 38.26, 10.96 37.76, 9.96 37.18 C8.96 36.61, 8 35.93, 7.12 35.19 C6.23 34.45, 5.4 33.62, 4.66 32.74 C3.92 31.85, 3.25 30.89, 2.67 29.89 C2.09 28.89, 1.6 27.83, 1.2 26.74 C0.81 25.66, 0.5 24.52, 0.3 23.39 C0.1 22.25, 0 21.08, 0 19.93 C0 18.77, 0.1 17.6, 0.3 16.47 C0.5 15.33, 0.81 14.2, 1.2 13.11 C1.6 12.03, 2.09 10.96, 2.67 9.96 C3.25 8.96, 3.92 8, 4.66 7.12 C5.4 6.23, 6.23 5.4, 7.12 4.66 C8 3.92, 8.96 3.25, 9.96 2.67 C10.96 2.09, 12.03 1.6, 13.11 1.2 C14.2 0.81, 15.33 0.5, 16.47 0.3 C17.6 0.1, 18.77 0, 19.93 0 C21.08 0, 22.25 0.1, 23.39 0.3 C24.52 0.5, 25.66 0.81, 26.74 1.2 C27.83 1.6, 28.89 2.09, 29.89 2.67 C30.89 3.25, 31.85 3.92, 32.74 4.66 C33.62 5.4, 34.45 6.23, 35.19 7.12 C35.93 8, 36.61 8.96, 37.18 9.96 C37.76 10.96, 38.26 12.03, 38.65 13.11 C39.05 14.2, 39.35 15.33, 39.55 16.47 C39.75 17.6, 39.8 19.35, 39.85 19.93 C39.9 20.5, 39.9 19.35, 39.85 19.93" stroke="none" stroke-width="0" fill="#fa5252"></path><path d="M39.85 19.93 C39.85 21.08, 39.75 22.25, 39.55 23.39 C39.35 24.52, 39.05 25.66, 38.65 26.74 C38.26 27.83, 37.76 28.89, 37.18 29.89 C36.61 30.89, 35.93 31.85, 35.19 32.74 C34.45 33.62, 33.62 34.45, 32.74 35.19 C31.85 35.93, 30.89 36.61, 29.89 37.18 C28.89 37.76, 27.83 38.26, 26.74 38.65 C25.66 39.05, 24.52 39.35, 23.39 39.55 C22.25 39.75, 21.08 39.85, 19.93 39.85 C18.77 39.85, 17.6 39.75, 16.47 39.55 C15.33 39.35, 14.2 39.05, 13.11 38.65 C12.03 38.26, 10.96 37.76, 9.96 37.18 C8.96 36.61, 8 35.93, 7.12 35.19 C6.23 34.45, 5.4 33.62, 4.66 32.74 C3.92 31.85, 3.25 30.89, 2.67 29.89 C2.09 28.89, 1.6 27.83, 1.2 26.74 C0.81 25.66, 0.5 24.52, 0.3 23.39 C0.1 22.25, 0 21.08, 0 19.93 C0 18.77, 0.1 17.6, 0.3 16.47 C0.5 15.33, 0.81 14.2, 1.2 13.11 C1.6 12.03, 2.09 10.96, 2.67 9.96 C3.25 8.96, 3.92 8, 4.66 7.12 C5.4 6.23, 6.23 5.4, 7.12 4.66 C8 3.92, 8.96 3.25, 9.96 2.67 C10.96 2.09, 12.03 1.6, 13.11 1.2 C14.2 0.81, 15.33 0.5, 16.47 0.3 C17.6 0.1, 18.77 0, 19.93 0 C21.08 0, 22.25 0.1, 23.39 0.3 C24.52 0.5, 25.66 0.81, 26.74 1.2 C27.83 1.6, 28.89 2.09, 29.89 2.67 C30.89 3.25, 31.85 3.92, 32.74 4.66 C33.62 5.4, 34.45 6.23, 35.19 7.12 C35.93 8, 36.61 8.96, 37.18 9.96 C37.76 10.96, 38.26 12.03, 38.65 13.11 C39.05 14.2, 39.35 15.33, 39.55 16.47 C39.75 17.6, 39.8 19.35, 39.85 19.93 C39.9 20.5, 39.9 19.35, 39.85 19.93" stroke="#000000" stroke-width="1" fill="none"></path></g><g stroke-linecap="round" transform="translate(2187.8666962654224 681.930685773909) rotate(0 19.926544323302096 19.926544323302096)"><path d="M39.85 19.93 C39.85 21.08, 39.75 22.25, 39.55 23.39 C39.35 24.52, 39.05 25.66, 38.65 26.74 C38.26 27.83, 37.76 28.89, 37.18 29.89 C36.61 30.89, 35.93 31.85, 35.19 32.74 C34.45 33.62, 33.62 34.45, 32.74 35.19 C31.85 35.93, 30.89 36.61, 29.89 37.18 C28.89 37.76, 27.83 38.26, 26.74 38.65 C25.66 39.05, 24.52 39.35, 23.39 39.55 C22.25 39.75, 21.08 39.85, 19.93 39.85 C18.77 39.85, 17.6 39.75, 16.47 39.55 C15.33 39.35, 14.2 39.05, 13.11 38.65 C12.03 38.26, 10.96 37.76, 9.96 37.18 C8.96 36.61, 8 35.93, 7.12 35.19 C6.23 34.45, 5.4 33.62, 4.66 32.74 C3.92 31.85, 3.25 30.89, 2.67 29.89 C2.09 28.89, 1.6 27.83, 1.2 26.74 C0.81 25.66, 0.5 24.52, 0.3 23.39 C0.1 22.25, 0 21.08, 0 19.93 C0 18.77, 0.1 17.6, 0.3 16.47 C0.5 15.33, 0.81 14.2, 1.2 13.11 C1.6 12.03, 2.09 10.96, 2.67 9.96 C3.25 8.96, 3.92 8, 4.66 7.12 C5.4 6.23, 6.23 5.4, 7.12 4.66 C8 3.92, 8.96 3.25, 9.96 2.67 C10.96 2.09, 12.03 1.6, 13.11 1.2 C14.2 0.81, 15.33 0.5, 16.47 0.3 C17.6 0.1, 18.77 0, 19.93 0 C21.08 0, 22.25 0.1, 23.39 0.3 C24.52 0.5, 25.66 0.81, 26.74 1.2 C27.83 1.6, 28.89 2.09, 29.89 2.67 C30.89 3.25, 31.85 3.92, 32.74 4.66 C33.62 5.4, 34.45 6.23, 35.19 7.12 C35.93 8, 36.61 8.96, 37.18 9.96 C37.76 10.96, 38.26 12.03, 38.65 13.11 C39.05 14.2, 39.35 15.33, 39.55 16.47 C39.75 17.6, 39.8 19.35, 39.85 19.93 C39.9 20.5, 39.9 19.35, 39.85 19.93" stroke="none" stroke-width="0" fill="#40c057"></path><path d="M39.85 19.93 C39.85 21.08, 39.75 22.25, 39.55 23.39 C39.35 24.52, 39.05 25.66, 38.65 26.74 C38.26 27.83, 37.76 28.89, 37.18 29.89 C36.61 30.89, 35.93 31.85, 35.19 32.74 C34.45 33.62, 33.62 34.45, 32.74 35.19 C31.85 35.93, 30.89 36.61, 29.89 37.18 C28.89 37.76, 27.83 38.26, 26.74 38.65 C25.66 39.05, 24.52 39.35, 23.39 39.55 C22.25 39.75, 21.08 39.85, 19.93 39.85 C18.77 39.85, 17.6 39.75, 16.47 39.55 C15.33 39.35, 14.2 39.05, 13.11 38.65 C12.03 38.26, 10.96 37.76, 9.96 37.18 C8.96 36.61, 8 35.93, 7.12 35.19 C6.23 34.45, 5.4 33.62, 4.66 32.74 C3.92 31.85, 3.25 30.89, 2.67 29.89 C2.09 28.89, 1.6 27.83, 1.2 26.74 C0.81 25.66, 0.5 24.52, 0.3 23.39 C0.1 22.25, 0 21.08, 0 19.93 C0 18.77, 0.1 17.6, 0.3 16.47 C0.5 15.33, 0.81 14.2, 1.2 13.11 C1.6 12.03, 2.09 10.96, 2.67 9.96 C3.25 8.96, 3.92 8, 4.66 7.12 C5.4 6.23, 6.23 5.4, 7.12 4.66 C8 3.92, 8.96 3.25, 9.96 2.67 C10.96 2.09, 12.03 1.6, 13.11 1.2 C14.2 0.81, 15.33 0.5, 16.47 0.3 C17.6 0.1, 18.77 0, 19.93 0 C21.08 0, 22.25 0.1, 23.39 0.3 C24.52 0.5, 25.66 0.81, 26.74 1.2 C27.83 1.6, 28.89 2.09, 29.89 2.67 C30.89 3.25, 31.85 3.92, 32.74 4.66 C33.62 5.4, 34.45 6.23, 35.19 7.12 C35.93 8, 36.61 8.96, 37.18 9.96 C37.76 10.96, 38.26 12.03, 38.65 13.11 C39.05 14.2, 39.35 15.33, 39.55 16.47 C39.75 17.6, 39.8 19.35, 39.85 19.93 C39.9 20.5, 39.9 19.35, 39.85 19.93" stroke="#000000" stroke-width="1" fill="none"></path></g><g stroke-linecap="round" transform="translate(1689.7030881828678 665.9894503152676) rotate(0 79.70617729320838 19.926544323302096)"><path d="M1.73 -1.68 L159.39 0.4 L159.66 40.03 L1.05 38.62" stroke="none" stroke-width="0" fill="#868e96"></path><path d="M0 0 C47.2 1.04, 91.29 -0.11, 159.41 0 M0 0 C35.15 0.63, 71.39 1.15, 159.41 0 M159.41 0 C158.42 10.6, 159.99 24.22, 159.41 39.85 M159.41 0 C158.45 15.61, 159.84 31.24, 159.41 39.85 M159.41 39.85 C109.49 40.83, 56.67 40.18, 0 39.85 M159.41 39.85 C108.4 41.14, 57.37 41.22, 0 39.85 M0 39.85 C-0.55 25.27, -1.87 15.91, 0 0 M0 39.85 C1.23 30.79, 0.08 23.03, 0 0" stroke="#000000" stroke-width="1" fill="none"></path></g><g transform="translate(2116.1311367015396 600.2318540483694) rotate(0 67.40625 8.629841752046616)"><text x="0" y="0" font-family="Cascadia, Segoe UI Emoji" font-size="14.383069586744384px" fill="#000000" text-anchor="start" style="white-space: pre;" direction="ltr" dominant-baseline="text-before-edge">Very fast Server</text></g><g stroke-linecap="round" transform="translate(1888.968531415895 626.1363616686641) rotate(0 79.70617729320838 42.50996122304451)"><path d="M0.25 0.18 L160.46 -1.23 L158.5 84.23 L-0.98 85.74" stroke="none" stroke-width="0" fill="#868e96"></path><path d="M0 0 C47.64 0.99, 98.13 0.19, 159.41 0 M0 0 C54.56 -1.18, 108.74 -2.07, 159.41 0 M159.41 0 C161.34 20.6, 161.34 41.34, 159.41 85.02 M159.41 0 C160.12 27.03, 160.63 54.92, 159.41 85.02 M159.41 85.02 C113.28 85.07, 67.81 85.37, 0 85.02 M159.41 85.02 C111.47 85.02, 64.03 84.88, 0 85.02 M0 85.02 C-0.89 65.34, 1.67 50.95, 0 0 M0 85.02 C1.1 63.12, 0.22 43.11, 0 0" stroke="#000000" stroke-width="1" fill="none"></path></g><g stroke-linecap="round"><g transform="translate(1902.7150835271286 634.9209060324316) rotate(0 69.16988430264746 0)"><path d="M0 0 C34.51 -0.74, 70.37 0.85, 138.34 0 M0 0 C54.02 -1.02, 108.73 -0.23, 138.34 0" stroke="#000000" stroke-width="1" fill="none"></path></g></g><mask></mask><g stroke-linecap="round"><g transform="translate(1902.010453429787 645.2117631013876) rotate(0 69.16988430264746 0)"><path d="M0 0 C43.82 1.41, 87.81 0.21, 138.34 0 M0 0 C45.56 1.01, 92.64 1.65, 138.34 0" stroke="#000000" stroke-width="1" fill="none"></path></g></g><mask></mask><g stroke-linecap="round"><g transform="translate(1903.0882734585584 656.6705384058349) rotate(0 69.16988430264746 0)"><path d="M0 0 C39.31 -0.89, 75.48 -1.86, 138.34 0 M0 0 C34.26 0.55, 66.97 0.55, 138.34 0" stroke="#000000" stroke-width="1" fill="none"></path></g></g><mask></mask><g stroke-linecap="round"><g transform="translate(1898.523041988733 667.1046558038648) rotate(0 69.16988430264746 0)"><path d="M0 0 C49.06 -1.03, 95.67 -0.81, 138.34 0 M0 0 C44.2 -0.33, 88.46 -1, 138.34 0" stroke="#000000" stroke-width="1" fill="none"></path></g></g><mask></mask><g stroke-linecap="round"><g transform="translate(1904.7313865514652 677.0887002022764) rotate(0 69.16988430264746 0)"><path d="M0 0 C38.97 -0.14, 80.65 1.93, 138.34 0 M0 0 C52.69 -1, 107.56 -0.77, 138.34 0" stroke="#000000" stroke-width="1" fill="none"></path></g></g><mask></mask><g stroke-linecap="round"><g transform="translate(1900.45561543442 684.9320911095563) rotate(0 69.16988430264746 0)"><path d="M0 0 C33.84 1.78, 68.5 -0.2, 138.34 0 M0 0 C54.07 0.15, 107.15 -0.44, 138.34 0" stroke="#000000" stroke-width="1" fill="none"></path></g></g><mask></mask><g stroke-linecap="round"><g transform="translate(1897.4117754328854 698.6334507422496) rotate(0 69.16988430264746 0)"><path d="M0 0 C36.65 -1.63, 71.56 -2.36, 138.34 0 M0 0 C44.44 -0.76, 89.2 -0.06, 138.34 0" stroke="#000000" stroke-width="1" fill="none"></path></g></g><mask></mask><g transform="translate(1330.3368181303094 748.0505828466863) rotate(0 705.7763671875 41.30229187011719)"><text x="705.7763671875" y="0" font-family="Cascadia, Segoe UI Emoji" font-size="68.837153116862px" fill="#000000" text-anchor="middle" style="white-space: pre;" direction="ltr" dominant-baseline="text-before-edge">StudioPro Dev Server localhost:8080</text></g><g stroke-linecap="round" transform="translate(1649.8499995362681 1225.1461880220606) rotate(0 298.8981648495319 79.70617729320838)"><path d="M-1.44 -1.73 L597.04 -0.18 L599.3 159.96 L-1.72 157.54" stroke="none" stroke-width="0" fill="#ced4da"></path><path d="M0 0 C142.87 1.54, 287.17 1.78, 597.8 0 M0 0 C126.91 1.59, 253.38 1.12, 597.8 0 M597.8 0 C596.84 50.54, 594.36 101.37, 597.8 159.41 M597.8 0 C599.93 59.92, 599.9 120.44, 597.8 159.41 M597.8 159.41 C457.21 159.48, 316.86 160.01, 0 159.41 M597.8 159.41 C380.73 157.96, 163.62 157.48, 0 159.41 M0 159.41 C-3.11 120.05, -2.05 84.61, 0 0 M0 159.41 C1.37 96.16, 1.55 32.69, 0 0" stroke="#000000" stroke-width="1" fill="none"></path></g><g stroke-linecap="round" transform="translate(1689.7030881828678 1264.9992766686642) rotate(0 79.70617729320838 19.926544323302096)"><path d="M-1.73 -0.76 L159.23 1.5 L159.96 38.13 L-1.87 38.57" stroke="none" stroke-width="0" fill="#868e96"></path><path d="M0 0 C57.09 2.45, 114.81 -1.01, 159.41 0 M0 0 C61.04 -0.82, 120.65 -0.89, 159.41 0 M159.41 0 C159.4 6.23, 159.61 17.83, 159.41 39.85 M159.41 0 C158.87 15.88, 159.22 29.32, 159.41 39.85 M159.41 39.85 C112.5 37.45, 67.96 40.25, 0 39.85 M159.41 39.85 C127.49 38.61, 94.02 38.74, 0 39.85 M0 39.85 C-0.86 23.92, 1.83 11.46, 0 0 M0 39.85 C0.15 31.06, 0.02 20.59, 0 0" stroke="#000000" stroke-width="1" fill="none"></path></g><g stroke-linecap="round" transform="translate(2136.0576810248394 1320.793600773909) rotate(0 19.926544323302096 19.926544323302096)"><path d="M39.85 19.93 C39.85 21.08, 39.75 22.25, 39.55 23.39 C39.35 24.52, 39.05 25.66, 38.65 26.74 C38.26 27.83, 37.76 28.89, 37.18 29.89 C36.61 30.89, 35.93 31.85, 35.19 32.74 C34.45 33.62, 33.62 34.45, 32.74 35.19 C31.85 35.93, 30.89 36.61, 29.89 37.18 C28.89 37.76, 27.83 38.26, 26.74 38.65 C25.66 39.05, 24.52 39.35, 23.39 39.55 C22.25 39.75, 21.08 39.85, 19.93 39.85 C18.77 39.85, 17.6 39.75, 16.47 39.55 C15.33 39.35, 14.2 39.05, 13.11 38.65 C12.03 38.26, 10.96 37.76, 9.96 37.18 C8.96 36.61, 8 35.93, 7.12 35.19 C6.23 34.45, 5.4 33.62, 4.66 32.74 C3.92 31.85, 3.25 30.89, 2.67 29.89 C2.09 28.89, 1.6 27.83, 1.2 26.74 C0.81 25.66, 0.5 24.52, 0.3 23.39 C0.1 22.25, 0 21.08, 0 19.93 C0 18.77, 0.1 17.6, 0.3 16.47 C0.5 15.33, 0.81 14.2, 1.2 13.11 C1.6 12.03, 2.09 10.96, 2.67 9.96 C3.25 8.96, 3.92 8, 4.66 7.12 C5.4 6.23, 6.23 5.4, 7.12 4.66 C8 3.92, 8.96 3.25, 9.96 2.67 C10.96 2.09, 12.03 1.6, 13.11 1.2 C14.2 0.81, 15.33 0.5, 16.47 0.3 C17.6 0.1, 18.77 0, 19.93 0 C21.08 0, 22.25 0.1, 23.39 0.3 C24.52 0.5, 25.66 0.81, 26.74 1.2 C27.83 1.6, 28.89 2.09, 29.89 2.67 C30.89 3.25, 31.85 3.92, 32.74 4.66 C33.62 5.4, 34.45 6.23, 35.19 7.12 C35.93 8, 36.61 8.96, 37.18 9.96 C37.76 10.96, 38.26 12.03, 38.65 13.11 C39.05 14.2, 39.35 15.33, 39.55 16.47 C39.75 17.6, 39.8 19.35, 39.85 19.93 C39.9 20.5, 39.9 19.35, 39.85 19.93" stroke="none" stroke-width="0" fill="#fa5252"></path><path d="M39.85 19.93 C39.85 21.08, 39.75 22.25, 39.55 23.39 C39.35 24.52, 39.05 25.66, 38.65 26.74 C38.26 27.83, 37.76 28.89, 37.18 29.89 C36.61 30.89, 35.93 31.85, 35.19 32.74 C34.45 33.62, 33.62 34.45, 32.74 35.19 C31.85 35.93, 30.89 36.61, 29.89 37.18 C28.89 37.76, 27.83 38.26, 26.74 38.65 C25.66 39.05, 24.52 39.35, 23.39 39.55 C22.25 39.75, 21.08 39.85, 19.93 39.85 C18.77 39.85, 17.6 39.75, 16.47 39.55 C15.33 39.35, 14.2 39.05, 13.11 38.65 C12.03 38.26, 10.96 37.76, 9.96 37.18 C8.96 36.61, 8 35.93, 7.12 35.19 C6.23 34.45, 5.4 33.62, 4.66 32.74 C3.92 31.85, 3.25 30.89, 2.67 29.89 C2.09 28.89, 1.6 27.83, 1.2 26.74 C0.81 25.66, 0.5 24.52, 0.3 23.39 C0.1 22.25, 0 21.08, 0 19.93 C0 18.77, 0.1 17.6, 0.3 16.47 C0.5 15.33, 0.81 14.2, 1.2 13.11 C1.6 12.03, 2.09 10.96, 2.67 9.96 C3.25 8.96, 3.92 8, 4.66 7.12 C5.4 6.23, 6.23 5.4, 7.12 4.66 C8 3.92, 8.96 3.25, 9.96 2.67 C10.96 2.09, 12.03 1.6, 13.11 1.2 C14.2 0.81, 15.33 0.5, 16.47 0.3 C17.6 0.1, 18.77 0, 19.93 0 C21.08 0, 22.25 0.1, 23.39 0.3 C24.52 0.5, 25.66 0.81, 26.74 1.2 C27.83 1.6, 28.89 2.09, 29.89 2.67 C30.89 3.25, 31.85 3.92, 32.74 4.66 C33.62 5.4, 34.45 6.23, 35.19 7.12 C35.93 8, 36.61 8.96, 37.18 9.96 C37.76 10.96, 38.26 12.03, 38.65 13.11 C39.05 14.2, 39.35 15.33, 39.55 16.47 C39.75 17.6, 39.8 19.35, 39.85 19.93 C39.9 20.5, 39.9 19.35, 39.85 19.93" stroke="#000000" stroke-width="1" fill="none"></path></g><g stroke-linecap="round" transform="translate(2187.8666962654224 1320.793600773909) rotate(0 19.926544323302096 19.926544323302096)"><path d="M39.85 19.93 C39.85 21.08, 39.75 22.25, 39.55 23.39 C39.35 24.52, 39.05 25.66, 38.65 26.74 C38.26 27.83, 37.76 28.89, 37.18 29.89 C36.61 30.89, 35.93 31.85, 35.19 32.74 C34.45 33.62, 33.62 34.45, 32.74 35.19 C31.85 35.93, 30.89 36.61, 29.89 37.18 C28.89 37.76, 27.83 38.26, 26.74 38.65 C25.66 39.05, 24.52 39.35, 23.39 39.55 C22.25 39.75, 21.08 39.85, 19.93 39.85 C18.77 39.85, 17.6 39.75, 16.47 39.55 C15.33 39.35, 14.2 39.05, 13.11 38.65 C12.03 38.26, 10.96 37.76, 9.96 37.18 C8.96 36.61, 8 35.93, 7.12 35.19 C6.23 34.45, 5.4 33.62, 4.66 32.74 C3.92 31.85, 3.25 30.89, 2.67 29.89 C2.09 28.89, 1.6 27.83, 1.2 26.74 C0.81 25.66, 0.5 24.52, 0.3 23.39 C0.1 22.25, 0 21.08, 0 19.93 C0 18.77, 0.1 17.6, 0.3 16.47 C0.5 15.33, 0.81 14.2, 1.2 13.11 C1.6 12.03, 2.09 10.96, 2.67 9.96 C3.25 8.96, 3.92 8, 4.66 7.12 C5.4 6.23, 6.23 5.4, 7.12 4.66 C8 3.92, 8.96 3.25, 9.96 2.67 C10.96 2.09, 12.03 1.6, 13.11 1.2 C14.2 0.81, 15.33 0.5, 16.47 0.3 C17.6 0.1, 18.77 0, 19.93 0 C21.08 0, 22.25 0.1, 23.39 0.3 C24.52 0.5, 25.66 0.81, 26.74 1.2 C27.83 1.6, 28.89 2.09, 29.89 2.67 C30.89 3.25, 31.85 3.92, 32.74 4.66 C33.62 5.4, 34.45 6.23, 35.19 7.12 C35.93 8, 36.61 8.96, 37.18 9.96 C37.76 10.96, 38.26 12.03, 38.65 13.11 C39.05 14.2, 39.35 15.33, 39.55 16.47 C39.75 17.6, 39.8 19.35, 39.85 19.93 C39.9 20.5, 39.9 19.35, 39.85 19.93" stroke="none" stroke-width="0" fill="#40c057"></path><path d="M39.85 19.93 C39.85 21.08, 39.75 22.25, 39.55 23.39 C39.35 24.52, 39.05 25.66, 38.65 26.74 C38.26 27.83, 37.76 28.89, 37.18 29.89 C36.61 30.89, 35.93 31.85, 35.19 32.74 C34.45 33.62, 33.62 34.45, 32.74 35.19 C31.85 35.93, 30.89 36.61, 29.89 37.18 C28.89 37.76, 27.83 38.26, 26.74 38.65 C25.66 39.05, 24.52 39.35, 23.39 39.55 C22.25 39.75, 21.08 39.85, 19.93 39.85 C18.77 39.85, 17.6 39.75, 16.47 39.55 C15.33 39.35, 14.2 39.05, 13.11 38.65 C12.03 38.26, 10.96 37.76, 9.96 37.18 C8.96 36.61, 8 35.93, 7.12 35.19 C6.23 34.45, 5.4 33.62, 4.66 32.74 C3.92 31.85, 3.25 30.89, 2.67 29.89 C2.09 28.89, 1.6 27.83, 1.2 26.74 C0.81 25.66, 0.5 24.52, 0.3 23.39 C0.1 22.25, 0 21.08, 0 19.93 C0 18.77, 0.1 17.6, 0.3 16.47 C0.5 15.33, 0.81 14.2, 1.2 13.11 C1.6 12.03, 2.09 10.96, 2.67 9.96 C3.25 8.96, 3.92 8, 4.66 7.12 C5.4 6.23, 6.23 5.4, 7.12 4.66 C8 3.92, 8.96 3.25, 9.96 2.67 C10.96 2.09, 12.03 1.6, 13.11 1.2 C14.2 0.81, 15.33 0.5, 16.47 0.3 C17.6 0.1, 18.77 0, 19.93 0 C21.08 0, 22.25 0.1, 23.39 0.3 C24.52 0.5, 25.66 0.81, 26.74 1.2 C27.83 1.6, 28.89 2.09, 29.89 2.67 C30.89 3.25, 31.85 3.92, 32.74 4.66 C33.62 5.4, 34.45 6.23, 35.19 7.12 C35.93 8, 36.61 8.96, 37.18 9.96 C37.76 10.96, 38.26 12.03, 38.65 13.11 C39.05 14.2, 39.35 15.33, 39.55 16.47 C39.75 17.6, 39.8 19.35, 39.85 19.93 C39.9 20.5, 39.9 19.35, 39.85 19.93" stroke="#000000" stroke-width="1" fill="none"></path></g><g stroke-linecap="round" transform="translate(1689.7030881828678 1304.8523653152677) rotate(0 79.70617729320838 19.926544323302096)"><path d="M1.5 0.54 L157.69 -1.87 L158.13 38.02 L1.91 40.3" stroke="none" stroke-width="0" fill="#868e96"></path><path d="M0 0 C45.64 1.2, 93.57 0.92, 159.41 0 M0 0 C52.01 0.51, 103.84 1.75, 159.41 0 M159.41 0 C160.58 13.31, 157.55 25.43, 159.41 39.85 M159.41 0 C159.11 10.86, 159.97 21.42, 159.41 39.85 M159.41 39.85 C121.21 38.12, 79.16 39.44, 0 39.85 M159.41 39.85 C105.4 39.31, 51.64 37.59, 0 39.85 M0 39.85 C2.1 29.02, -0.18 21.48, 0 0 M0 39.85 C-0.91 26.69, -0.57 15.17, 0 0" stroke="#000000" stroke-width="1" fill="none"></path></g><g transform="translate(2116.1311367015396 1239.0947690483695) rotate(0 67.40625 8.629841752046673)"><text x="0" y="0" font-family="Cascadia, Segoe UI Emoji" font-size="14.383069586744384px" fill="#000000" text-anchor="start" style="white-space: pre;" direction="ltr" dominant-baseline="text-before-edge">Very fast Server</text></g><g stroke-linecap="round" transform="translate(1888.968531415895 1264.9992766686642) rotate(0 79.70617729320838 42.509961223044456)"><path d="M-1.72 -1.87 L158.13 -1.83 L161.32 85.47 L-1.36 86.2" stroke="none" stroke-width="0" fill="#868e96"></path><path d="M0 0 C50.84 0.05, 104.67 -0.8, 159.41 0 M0 0 C33.32 1.81, 66.25 0.57, 159.41 0 M159.41 0 C158.59 27.88, 159.58 53.85, 159.41 85.02 M159.41 0 C159.06 25.89, 158.33 52.07, 159.41 85.02 M159.41 85.02 C108.04 82.83, 60.03 82, 0 85.02 M159.41 85.02 C124.12 85.39, 90.15 85.92, 0 85.02 M0 85.02 C-1.16 53.96, -0.66 22.66, 0 0 M0 85.02 C0.23 59.81, 1.36 35.05, 0 0" stroke="#000000" stroke-width="1" fill="none"></path></g><g stroke-linecap="round"><g transform="translate(1902.7150835271286 1273.7838210324317) rotate(0 69.16988430264746 0)"><path d="M0 0 C30.65 1.36, 59.11 -0.98, 138.34 0 M0 0 C44.22 -0.29, 86.91 -0.18, 138.34 0" stroke="#000000" stroke-width="1" fill="none"></path></g></g><mask></mask><g stroke-linecap="round"><g transform="translate(1902.010453429787 1284.0746781013877) rotate(0 69.16988430264746 0)"><path d="M0 0 C53.25 -0.43, 103.66 -0.58, 138.34 0 M0 0 C28.21 -1.35, 56.57 0.38, 138.34 0" stroke="#000000" stroke-width="1" fill="none"></path></g></g><mask></mask><g stroke-linecap="round"><g transform="translate(1903.0882734585584 1295.533453405835) rotate(0 69.16988430264746 0)"><path d="M0 0 C33.4 -2.19, 66.15 -2.26, 138.34 0 M0 0 C43.02 0.12, 88.72 0.82, 138.34 0" stroke="#000000" stroke-width="1" fill="none"></path></g></g><mask></mask><g stroke-linecap="round"><g transform="translate(1898.523041988733 1305.9675708038649) rotate(0 69.16988430264746 0)"><path d="M0 0 C48.95 0.01, 99.66 0.01, 138.34 0 M0 0 C45.53 2.09, 91.69 0.58, 138.34 0" stroke="#000000" stroke-width="1" fill="none"></path></g></g><mask></mask><g stroke-linecap="round"><g transform="translate(1904.7313865514652 1315.9516152022763) rotate(0 69.16988430264746 0)"><path d="M0 0 C45.33 -0.64, 90.32 1.85, 138.34 0 M0 0 C41.7 0.67, 81.11 0.84, 138.34 0" stroke="#000000" stroke-width="1" fill="none"></path></g></g><mask></mask><g stroke-linecap="round"><g transform="translate(1900.45561543442 1323.7950061095564) rotate(0 69.16988430264746 0)"><path d="M0 0 C43.03 0.11, 90.46 -0.33, 138.34 0 M0 0 C29.08 -1.81, 57.56 -1.32, 138.34 0" stroke="#000000" stroke-width="1" fill="none"></path></g></g><mask></mask><g stroke-linecap="round"><g transform="translate(1897.4117754328854 1337.4963657422497) rotate(0 69.16988430264746 0)"><path d="M0 0 C29.12 1.9, 57.44 -0.58, 138.34 0 M0 0 C41.63 -0.13, 84.49 -0.17, 138.34 0" stroke="#000000" stroke-width="1" fill="none"></path></g></g><mask></mask><g transform="translate(1431.162013442809 1386.9134978466864) rotate(0 604.9511718750002 41.30229187011719)"><text x="604.951171875" y="0" font-family="Cascadia, Segoe UI Emoji" font-size="68.837153116862px" fill="#000000" text-anchor="middle" style="white-space: pre;" direction="ltr" dominant-baseline="text-before-edge">Vite Dev Server localhost:5173</text></g><g stroke-linecap="round"><g transform="translate(384.9421922522715 560.696340213467) rotate(0 624.4357552646488 29.54122699548475)"><path d="M-0.24 0.09 C62.15 -7.79, 166.07 -65.43, 374.15 -47.69 C582.22 -29.95, 1102.47 80.64, 1248.21 106.52 M-1.83 -0.9 C60.96 -9.14, 168.26 -67.78, 376.41 -49.7 C584.57 -31.61, 1101.72 81.74, 1247.09 107.59" stroke="#e03131" stroke-width="2" fill="none"></path></g><g transform="translate(384.9421922522715 560.696340213467) rotate(0 624.4357552646488 29.54122699548475)"><path d="M1217.45 112.2 C1226.01 109.54, 1234.63 108.54, 1247.09 107.59 M1217.45 112.2 C1224.3 111.39, 1232.01 109.36, 1247.09 107.59" stroke="#e03131" stroke-width="2" fill="none"></path></g><g transform="translate(384.9421922522715 560.696340213467) rotate(0 624.4357552646488 29.54122699548475)"><path d="M1221.42 92.07 C1228.8 95.09, 1236.28 99.8, 1247.09 107.59 M1221.42 92.07 C1227.19 96.51, 1233.86 99.72, 1247.09 107.59" stroke="#e03131" stroke-width="2" fill="none"></path></g></g><mask></mask><g stroke-linecap="round"><g transform="translate(393.1408922034434 594.5920107863832) rotate(0 621.6580200195312 357.4869791666666)"><path d="M-0.93 1.08 C206.46 120.55, 1036.87 596.86, 1244.39 715.9 M0.78 0.6 C208.1 119.83, 1036.82 594.9, 1244.01 714.27" stroke="#e03131" stroke-width="2" fill="none"></path></g><g transform="translate(393.1408922034434 594.5920107863832) rotate(0 621.6580200195312 357.4869791666666)"><path d="M1214.46 709.12 C1225.26 712.72, 1234.05 714.01, 1244.01 714.27 M1214.46 709.12 C1224.15 711, 1233.45 713.27, 1244.01 714.27" stroke="#e03131" stroke-width="2" fill="none"></path></g><g transform="translate(393.1408922034434 594.5920107863832) rotate(0 621.6580200195312 357.4869791666666)"><path d="M1224.68 691.33 C1232.21 700.29, 1237.88 707.03, 1244.01 714.27 M1224.68 691.33 C1231.01 698.99, 1236.96 707.09, 1244.01 714.27" stroke="#e03131" stroke-width="2" fill="none"></path></g></g><mask></mask><g transform="translate(412.05897923701923 1719.9950947057284) rotate(0 390.234375 21.600000000000023)"><text x="0" y="0" font-family="Cascadia, Segoe UI Emoji" font-size="36px" fill="#2f9e44" text-anchor="start" style="white-space: pre;" direction="ltr" dominant-baseline="text-before-edge">http://localhost:5173/test/index.html</text></g><g stroke-linecap="round"><g transform="translate(1212.5219078957493 1739.5138669550772) rotate(0 431.52970481777015 -129.6533627718095)"><path d="M-0.58 -0.77 C110.46 -8.14, 521.37 -1.46, 665.25 -44.56 C809.13 -87.66, 829.59 -223.76, 862.72 -259.39 M1.32 1.44 C112.26 -6.25, 520.74 -3.1, 664.15 -46.35 C807.56 -89.61, 828.34 -222.45, 861.77 -258.11" stroke="#2f9e44" stroke-width="2" fill="none"></path></g><g transform="translate(1212.5219078957493 1739.5138669550772) rotate(0 431.52970481777015 -129.6533627718095)"><path d="M856.75 -228.53 C856.64 -235.4, 860.05 -241.92, 861.77 -258.11 M856.75 -228.53 C858.79 -237.23, 858.48 -246.89, 861.77 -258.11" stroke="#2f9e44" stroke-width="2" fill="none"></path></g><g transform="translate(1212.5219078957493 1739.5138669550772) rotate(0 431.52970481777015 -129.6533627718095)"><path d="M838.91 -238.68 C842.65 -243.26, 849.93 -247.58, 861.77 -258.11 M838.91 -238.68 C846.26 -244.55, 851.19 -251.23, 861.77 -258.11" stroke="#2f9e44" stroke-width="2" fill="none"></path></g></g><mask></mask><g mask="url(#mask-afOu3IeZqB92lOe_oe-JK)" stroke-linecap="round"><g transform="translate(2163.3417344922273 1205.6551667447914) rotate(0 4.16666666666697 -187.49999999999983)"><path d="M0.14 -0.94 C1.62 -63.59, 7.66 -313.58, 9.16 -375.74 M-1.24 1.19 C0.13 -61.34, 6.97 -311.78, 8.64 -374.6" stroke="#2f9e44" stroke-width="2" fill="none"></path></g><g transform="translate(2163.3417344922273 1205.6551667447914) rotate(0 4.16666666666697 -187.49999999999983)"><path d="M18.14 -346.14 C13.49 -353.91, 10.75 -363.09, 8.64 -374.6 M18.14 -346.14 C15.21 -358.12, 11.06 -367.33, 8.64 -374.6" stroke="#2f9e44" stroke-width="2" fill="none"></path></g><g transform="translate(2163.3417344922273 1205.6551667447914) rotate(0 4.16666666666697 -187.49999999999983)"><path d="M-2.37 -346.69 C-0.42 -354.31, 3.44 -363.31, 8.64 -374.6 M-2.37 -346.69 C2.67 -358.5, 6.49 -367.5, 8.64 -374.6" stroke="#2f9e44" stroke-width="2" fill="none"></path></g></g><mask id="mask-afOu3IeZqB92lOe_oe-JK"><rect x="0" y="0" fill="#fff" width="2271.675067825561" height="1680.6551667447911"></rect><rect x="2019.8521511588942" y="974.9551667447918" fill="#000" width="295.3125" height="86.39999999999999" opacity="1"></rect></mask><g transform="translate(2019.8521511588942 974.9551667447915) rotate(0 147.44724524615776 43.42152729192276)"><text x="147.65625" y="0" font-family="Cascadia, Segoe UI Emoji" font-size="36px" fill="#2f9e44" text-anchor="middle" style="white-space: pre;" direction="ltr" dominant-baseline="text-before-edge">rewrite path: </text><text x="147.65625" y="43.199999999999996" font-family="Cascadia, Segoe UI Emoji" font-size="36px" fill="#2f9e44" text-anchor="middle" style="white-space: pre;" direction="ltr" dominant-baseline="text-before-edge">/index.html</text></g><g stroke-linecap="round"><g transform="translate(152.1554788450926 33.00569837239573) rotate(0 105.55557250976562 0)"><path d="M0.14 0.97 C35.43 1.21, 177.1 0.54, 212.15 0.47 M-1.25 0.44 C33.94 0.39, 176.65 -1.08, 211.75 -1.41" stroke="#e03131" stroke-width="2" fill="none"></path></g><g transform="translate(152.1554788450926 33.00569837239573) rotate(0 105.55557250976562 0)"><path d="M183.66 9.13 C194.78 7.3, 203.35 0.98, 211.75 -1.41 M183.66 9.13 C193.61 5.7, 203.16 1.27, 211.75 -1.41" stroke="#e03131" stroke-width="2" fill="none"></path></g><g transform="translate(152.1554788450926 33.00569837239573) rotate(0 105.55557250976562 0)"><path d="M183.46 -11.39 C194.48 -6.34, 203.13 -5.79, 211.75 -1.41 M183.46 -11.39 C193.46 -7.75, 203.07 -5.11, 211.75 -1.41" stroke="#e03131" stroke-width="2" fill="none"></path></g></g><mask></mask><g stroke-linecap="round"><g transform="translate(151.7246298450923 115.3211403723958) rotate(0 105.55557250976562 0)"><path d="M-0.82 -0.65 C34.23 -0.94, 175.45 -0.96, 210.76 -0.71 M0.95 1.62 C35.77 2, 174.74 0.9, 209.63 0.46" stroke="#2f9e44" stroke-width="2" fill="none"></path></g><g transform="translate(151.7246298450923 115.3211403723958) rotate(0 105.55557250976562 0)"><path d="M181.54 10.99 C189.93 7.02, 199.41 3.97, 209.63 0.46 M181.54 10.99 C192.63 6.12, 202.64 3.72, 209.63 0.46" stroke="#2f9e44" stroke-width="2" fill="none"></path></g><g transform="translate(151.7246298450923 115.3211403723958) rotate(0 105.55557250976562 0)"><path d="M181.35 -9.53 C189.97 -6.51, 199.52 -2.57, 209.63 0.46 M181.35 -9.53 C192.61 -6.78, 202.7 -1.56, 209.63 0.46" stroke="#2f9e44" stroke-width="2" fill="none"></path></g></g><mask></mask><g transform="translate(421.5636338646241 10) rotate(0 84.375 21.599999999999994)"><text x="0" y="0" font-family="Cascadia, Segoe UI Emoji" font-size="36px" fill="#e03131" text-anchor="start" style="white-space: pre;" direction="ltr" dominant-baseline="text-before-edge">Controll</text></g><g transform="translate(421.1327848646238 92.31544200000008) rotate(0 84.375 21.599999999999994)"><text x="0" y="0" font-family="Cascadia, Segoe UI Emoji" font-size="36px" fill="#2f9e44" text-anchor="start" style="white-space: pre;" direction="ltr" dominant-baseline="text-before-edge">http req</text></g><g stroke-linecap="round"><g transform="translate(303.35475503128964 648.8116399832775) rotate(0 159.85669708251953 521.7643585205078)"><path d="M0.02 0.93 C53.19 174.55, 266.63 868.99, 319.75 1042.86 M-1.43 0.37 C51.52 174.64, 265.07 870.42, 318.82 1044.05" stroke="#e03131" stroke-width="2" fill="none"></path></g><g transform="translate(303.35475503128964 648.8116399832775) rotate(0 159.85669708251953 521.7643585205078)"><path d="M300.72 1020.13 C309 1028.77, 312.83 1035.64, 318.82 1044.05 M300.72 1020.13 C307.09 1028.23, 312.75 1036.25, 318.82 1044.05" stroke="#e03131" stroke-width="2" fill="none"></path></g><g transform="translate(303.35475503128964 648.8116399832775) rotate(0 159.85669708251953 521.7643585205078)"><path d="M320.33 1014.09 C321.63 1024.9, 318.43 1033.94, 318.82 1044.05 M320.33 1014.09 C319.74 1024.51, 318.48 1034.66, 318.82 1044.05" stroke="#e03131" stroke-width="2" fill="none"></path></g></g><mask></mask><g transform="translate(35.349400825560224 1887.0315423114027) rotate(0 348.046875 21.600000000000023)"><text x="0" y="0" font-family="Cascadia, Segoe UI Emoji" font-size="36px" fill="#2f9e44" text-anchor="start" style="white-space: pre;" direction="ltr" dominant-baseline="text-before-edge">/test/mxclientsystem/mxui/mxui.js</text></g><g transform="translate(1463.4708578255604 1890.7603963114027) rotate(0 537.890625 21.600000000000023)"><text x="0" y="0" font-family="Cascadia, Segoe UI Emoji" font-size="36px" fill="#2f9e44" text-anchor="start" style="white-space: pre;" direction="ltr" dominant-baseline="text-before-edge">./node_modules/@engalar/vite-plugin-mendix/dummy.js</text></g><g mask="url(#mask-1TkIqras0aV0lUsxFPesR)" stroke-linecap="round"><g transform="translate(744.2452783060289 1911.7800963221532) rotate(0 353.74351501464844 1.299016966050658)"><path d="M-0.84 0.97 C117.08 1.5, 589.2 2.21, 707.26 2.5 M0.92 0.43 C118.68 1.22, 588.56 3.38, 706.19 3.98" stroke="#2f9e44" stroke-width="2" fill="none"></path></g><g transform="translate(744.2452783060289 1911.7800963221532) rotate(0 353.74351501464844 1.299016966050658)"><path d="M677.95 14.1 C687.57 11.08, 693.74 8.64, 706.19 3.98 M677.95 14.1 C686.26 10.32, 695.82 7.45, 706.19 3.98" stroke="#2f9e44" stroke-width="2" fill="none"></path></g><g transform="translate(744.2452783060289 1911.7800963221532) rotate(0 353.74351501464844 1.299016966050658)"><path d="M678.05 -6.42 C687.52 -3.67, 693.66 -0.33, 706.19 3.98 M678.05 -6.42 C686.39 -3.92, 695.93 -0.52, 706.19 3.98" stroke="#2f9e44" stroke-width="2" fill="none"></path></g></g><mask id="mask-1TkIqras0aV0lUsxFPesR"><rect x="0" y="0" fill="#fff" width="1551.7323083353258" height="2014.3781302542545"></rect><rect x="897.5981683206774" y="1869.8791132882038" fill="#000" width="400.78125" height="86.39999999999999" opacity="1"></rect></mask><g transform="translate(897.5981683206774 1869.8791132882043) rotate(0 199.85883640497923 44.10582352529286)"><text x="200.390625" y="0" font-family="Cascadia, Segoe UI Emoji" font-size="36px" fill="#2f9e44" text-anchor="middle" style="white-space: pre;" direction="ltr" dominant-baseline="text-before-edge">replace this js as </text><text x="200.390625" y="43.199999999999996" font-family="Cascadia, Segoe UI Emoji" font-size="36px" fill="#2f9e44" text-anchor="middle" style="white-space: pre;" direction="ltr" dominant-baseline="text-before-edge">plugin entry point</text></g></svg>
